<?xml version="1.0" encoding="utf-8"?>
<!-- Generator: Adobe Illustrator 15.0.0, SVG Export Plug-In  -->
<!DOCTYPE svg PUBLIC "-//W3C//DTD SVG 1.1//EN" "http://www.w3.org/Graphics/SVG/1.1/DTD/svg11.dtd" [
	<!ENTITY ns_flows "http://ns.adobe.com/Flows/1.0/">
]>
<svg version="1.1"
	 xmlns="http://www.w3.org/2000/svg" xmlns:xlink="http://www.w3.org/1999/xlink" xmlns:a="http://ns.adobe.com/AdobeSVGViewerExtensions/3.0/"
	 x="0px" y="0px" width="174px" height="174px" viewBox="0 0 174 174" enable-background="new 0 0 174 174" xml:space="preserve">
<defs>
</defs>
<path fill="#00C9BC" d="M174.424,87.212c0,48.166-39.047,87.212-87.213,87.212C39.047,174.424,0,135.378,0,87.212S39.047,0,87.211,0
	C135.377,0,174.424,39.046,174.424,87.212"/>
<g>
	<defs>
		<path id="SVGID_2_" d="M0,87.212c0,48.165,39.046,87.211,87.212,87.211c48.165,0,87.212-39.046,87.212-87.211
			C174.424,39.045,135.377,0,87.212,0C39.046,0,0,39.045,0,87.212"/>
	</defs>
	<clipPath id="SVGID_4_">
		<use xlink:href="#SVGID_2_"  overflow="visible"/>
	</clipPath>
	<g clip-path="url(#SVGID_4_)">
		<defs>
			<polyline id="SVGID_3_" points="27.633,233.854 239.533,233.854 239.533,55.068 27.633,55.068 27.633,233.854 			"/>
		</defs>
		<clipPath id="SVGID_5_">
			<use xlink:href="#SVGID_3_"  overflow="visible"/>
		</clipPath>
		<path clip-path="url(#SVGID_5_)" fill="#43D0D9" d="M174.245,81.573c0.118,1.863,0.179,3.746,0.179,5.639l0,0
			C174.424,85.318,174.363,83.436,174.245,81.573L174.245,81.573"/>
		<path clip-path="url(#SVGID_5_)" fill="#00A4A0" d="M147.741,55.069l-0.146,0.065c0.018,0.029,0.034,0.058,0.051,0.088
			c2.438,4.429-7.066,24.522-13.474,34.418c7.858,10.031,12.567,18.699,12.641,18.834c0,0,0,0,0,0s0.001,0,0.001,0.001l0,0l0,0l0,0
			l0,0l0,0c0,0-0.012,0.012-0.033,0.035c-1.063,1.118-27.315,28.375-59.543,28.375l-0.032-0.001
			c-30.829-0.016-56.18-24.964-59.235-28.089l-0.338,0.151l65.29,65.291c45.502-2.942,81.501-40.781,81.501-87.027
			c0-1.894-0.061-3.776-0.179-5.639L147.741,55.069"/>
	</g>
</g>
<path fill="#C7DBF7" d="M43.085,93.572c-5.804-6.817-19.146-33.194-16.31-38.35c2.47-4.484,19.467-2.119,32.17,3.935
	c7.287,3.473,13.156,7.27,17.537,10.625C65.35,77.712,54.217,85.642,43.085,93.572"/>
<path fill="#99B6E0" d="M45.413,91.914c-5.235-7.439-12.199-23.747-11.317-27.05c2.594-1.707,14.281-0.8,24.158,3.521
	c4.081,1.785,8.002,3.896,11.508,6.185L45.413,91.914z"/>
<path fill="#C7DBF7" d="M131.338,93.572c5.805-6.817,19.146-33.194,16.309-38.35c-2.469-4.484-19.465-2.119-32.168,3.935
	c-7.288,3.473-13.157,7.27-17.537,10.625C109.074,77.712,120.206,85.642,131.338,93.572"/>
<path fill="#99B6E0" d="M129.01,91.914c5.235-7.439,12.199-23.747,11.317-27.05c-2.595-1.707-14.281-0.8-24.158,3.521
	c-4.081,1.785-8.002,3.896-11.507,6.185L129.01,91.914"/>
<path fill="#C7DBF7" d="M146.814,108.477c0,0-26.674,28.409-59.576,28.409c-32.903,0-59.576-28.409-59.576-28.409
	s26.673-49.299,59.576-49.299C120.141,59.178,146.814,108.477,146.814,108.477"/>
<path fill="#7A99C4" d="M79.147,86.619c-17.136,4.313-31.003,20.968-36.001,27.665c-1.182,1.582-0.842,3.809,0.736,4.994
	c6.024,4.529,21.36,14.628,39.713,15.854V90.102C83.596,87.773,81.404,86.052,79.147,86.619"/>
<path fill="#7A99C4" d="M90.881,135.133c18.352-1.227,33.688-11.326,39.711-15.854c1.578-1.186,1.918-3.412,0.738-4.993
	c-4.998-6.698-18.867-23.354-36.002-27.665c-2.257-0.568-4.447,1.153-4.447,3.481V135.133"/>
<path fill="#FFFFFF" d="M110.68,125.473c0,0-10.495,10.021-23.441,10.021c-12.947,0-23.442-10.021-23.442-10.021
	s10.495-17.388,23.442-17.388C100.185,108.085,110.68,125.473,110.68,125.473"/>
<path fill="#474747" d="M96.438,122.524c0,2.329-4.119,4.217-9.199,4.217c-5.082,0-9.201-1.888-9.201-4.217s4.119-6.9,9.201-6.9
	C92.318,115.624,96.438,120.195,96.438,122.524"/>
<path fill="#616161" d="M93.25,120.659c0,1.396-2.692,2.527-6.012,2.527c-3.32,0-6.013-1.132-6.013-2.527
	c0-1.396,2.692-4.138,6.013-4.138C90.558,116.521,93.25,119.263,93.25,120.659"/>
<path fill="#474747" d="M98.57,125.229c-0.001,0.8-0.276,1.568-0.816,2.306c-0.807,1.104-2.224,2.108-4.053,2.818
	c-1.828,0.712-4.059,1.136-6.463,1.135c-3.207,0.001-6.104-0.755-8.147-1.937c-1.023-0.589-1.83-1.282-2.369-2.017
	c-0.54-0.738-0.815-1.506-0.816-2.306c0-0.358-0.29-0.647-0.647-0.647s-0.647,0.29-0.647,0.647
	c-0.001,1.108,0.394,2.157,1.066,3.072c1.013,1.375,2.633,2.48,4.628,3.259c1.997,0.777,4.377,1.223,6.934,1.224
	c3.409-0.002,6.503-0.791,8.794-2.109c1.145-0.661,2.093-1.456,2.766-2.374c0.673-0.915,1.068-1.964,1.067-3.072
	c0-0.358-0.29-0.647-0.647-0.647S98.57,124.872,98.57,125.229L98.57,125.229"/>
<path fill="#474747" d="M73.396,105.398c0,2.012-1.631,3.643-3.644,3.643c-2.011,0-3.642-1.631-3.642-3.643
	c0-2.013,1.631-3.644,3.642-3.644C71.766,101.755,73.396,103.386,73.396,105.398"/>
<path fill="#FFFFFF" d="M69.996,104.184c0,0.716-0.58,1.295-1.295,1.295s-1.295-0.579-1.295-1.295c0-0.715,0.58-1.295,1.295-1.295
	S69.996,103.469,69.996,104.184"/>
<path fill="#474747" d="M108.365,105.398c0,2.012-1.631,3.643-3.644,3.643c-2.011,0-3.642-1.631-3.642-3.643
	c0-2.013,1.631-3.644,3.642-3.644C106.734,101.755,108.365,103.386,108.365,105.398"/>
<path fill="#FFFFFF" d="M104.965,104.184c0,0.716-0.58,1.295-1.295,1.295s-1.295-0.579-1.295-1.295c0-0.715,0.58-1.295,1.295-1.295
	S104.965,103.469,104.965,104.184"/>
<g>
	<defs>
		<polyline id="SVGID_1_" points="87.176,136.887 148.038,136.887 148.038,52.896 87.176,52.896 87.176,136.887 		"/>
	</defs>
	<clipPath id="SVGID_6_">
		<use xlink:href="#SVGID_1_"  overflow="visible"/>
	</clipPath>
	<path clip-path="url(#SVGID_6_)" fill="#00B1B2" d="M116.004,58.91c-0.176,0.082-0.351,0.164-0.525,0.248l0,0l0,0
		C115.653,59.074,115.828,58.992,116.004,58.91 M129.255,54.369c-4.351,1.024-8.925,2.548-13.085,4.464
		C120.33,56.917,124.904,55.394,129.255,54.369"/>
	<path clip-path="url(#SVGID_6_)" fill="#009198" d="M146.781,108.512c-1.063,1.118-27.315,28.374-59.543,28.374
		c-0.01,0-0.022,0-0.032,0l0.032,0.001C119.466,136.887,145.718,109.63,146.781,108.512 M146.814,108.477L146.814,108.477
		L146.814,108.477 M146.813,108.475C146.813,108.475,146.813,108.475,146.813,108.475S146.813,108.475,146.813,108.475"/>
	<path clip-path="url(#SVGID_6_)" fill="#A6C1EA" d="M140.405,52.896h-0.184c-3.131,0.009-6.952,0.529-10.967,1.474
		c-4.351,1.024-8.925,2.548-13.085,4.464c-0.056,0.025-0.111,0.051-0.166,0.076c-0.176,0.082-0.351,0.164-0.525,0.248l0,0
		c-3.485,1.661-6.635,3.395-9.463,5.12c2.759,1.467,5.427,3.189,7.99,5.091c0.715-0.337,1.437-0.666,2.163-0.983
		c6.799-2.974,14.455-4.331,19.413-4.331c2.245,0,3.937,0.278,4.745,0.81c0.718,2.689-3.766,14-8.281,22.125
		c0.731,0.89,1.439,1.775,2.125,2.649c6.407-9.892,15.914-29.985,13.476-34.415C146.773,53.637,144.081,52.908,140.405,52.896"/>
	<path clip-path="url(#SVGID_6_)" fill="#80A1D5" d="M135.582,64.054c-4.958,0-12.614,1.356-19.413,4.331
		c-0.727,0.318-1.448,0.646-2.163,0.983c6.884,5.107,13.006,11.498,18.04,17.621c4.516-8.125,8.999-19.436,8.281-22.125
		C139.519,64.333,137.827,64.054,135.582,64.054"/>
	<path clip-path="url(#SVGID_6_)" fill="#A6C1EA" d="M87.238,59.179l-0.063,0.002v48.904c0.021,0,0.042,0,0.063,0
		c1.239,0,2.455,0.159,3.643,0.447V90.102c0-2.025,1.656-3.591,3.573-3.591c0.287,0,0.58,0.035,0.874,0.109
		c17.135,4.312,31.004,20.967,36.002,27.665c1.18,1.581,0.84,3.808-0.738,4.993c-5.889,4.427-20.679,14.178-38.484,15.759
		c-1.57,0.291-3.199,0.457-4.869,0.457c-0.021,0-0.042,0-0.063,0v1.391l0.03,0.001c0.01,0,0.022,0,0.032,0
		c32.228,0,58.479-27.256,59.543-28.374c0.021-0.023,0.033-0.035,0.033-0.035l0,0l0,0l0,0c0,0-0.001,0-0.001-0.001s0,0,0,0
		c-0.074-0.136-4.793-8.805-12.646-18.831c0.001-0.002,0.003-0.004,0.004-0.006c-0.686-0.874-1.394-1.759-2.125-2.649
		c-5.034-6.123-11.156-12.514-18.04-17.621c-2.563-1.902-5.231-3.625-7.99-5.091c-0.007,0.004-0.014,0.008-0.021,0.012
		C100.096,61.155,93.794,59.179,87.238,59.179"/>
	<path clip-path="url(#SVGID_6_)" fill="#6687BA" d="M104.722,109.041c-2.011,0-3.642-1.631-3.642-3.643
		c0-2.013,1.631-3.644,3.642-3.644c2.013,0,3.644,1.631,3.644,3.644C108.365,107.41,106.734,109.041,104.722,109.041 M94.454,86.511
		c-1.917,0-3.573,1.566-3.573,3.591v18.431c11.216,2.722,19.799,16.94,19.799,16.94s-7.962,7.604-18.572,9.564
		c17.806-1.581,32.596-11.332,38.484-15.759c1.578-1.186,1.918-3.412,0.738-4.993c-4.998-6.698-18.867-23.354-36.002-27.665
		C95.034,86.546,94.741,86.511,94.454,86.511"/>
	<path clip-path="url(#SVGID_6_)" fill="#D5E1F2" d="M87.238,108.085c-0.021,0-0.042,0-0.063,0v7.54c0.021,0,0.042,0,0.063,0
		c5.08,0,9.199,4.571,9.199,6.9s-4.119,4.217-9.199,4.217c-0.021,0-0.042,0-0.063,0v4.748c0.017,0,0.034,0,0.052,0
		c0.004,0,0.008,0,0.011,0c2.404,0,4.635-0.423,6.463-1.135c1.829-0.71,3.246-1.714,4.053-2.818c0.54-0.738,0.815-1.506,0.816-2.306
		l0,0c0-0.358,0.29-0.647,0.647-0.647s0.647,0.29,0.647,0.647c0.001,1.108-0.395,2.157-1.067,3.072
		c-0.673,0.917-1.621,1.713-2.766,2.374c-2.291,1.318-5.385,2.107-8.794,2.109c-0.021,0-0.042,0-0.063,0v2.71
		c0.021,0,0.042,0,0.063,0c1.67,0,3.299-0.167,4.869-0.457c10.61-1.961,18.572-9.564,18.572-9.564s-8.583-14.219-19.799-16.94
		C89.693,108.244,88.478,108.085,87.238,108.085"/>
	<path clip-path="url(#SVGID_6_)" fill="#3B3F43" d="M87.238,115.624c-0.021,0-0.042,0-0.063,0v0.897c0.021,0,0.042,0,0.063,0
		c3.319,0,6.012,2.741,6.012,4.138c0,1.396-2.692,2.527-6.012,2.527c-0.021,0-0.042,0-0.063,0v3.555c0.021,0,0.042,0,0.063,0
		c5.08,0,9.199-1.888,9.199-4.217S92.318,115.624,87.238,115.624"/>
	<path clip-path="url(#SVGID_6_)" fill="#51565C" d="M87.238,116.521c-0.021,0-0.042,0-0.063,0v6.665c0.021,0,0.042,0,0.063,0
		c3.319,0,6.012-1.132,6.012-2.527C93.25,119.263,90.558,116.521,87.238,116.521"/>
	<path clip-path="url(#SVGID_6_)" fill="#3B3F43" d="M99.218,124.582c-0.357,0-0.647,0.29-0.647,0.647l0,0
		c-0.001,0.8-0.276,1.568-0.816,2.306c-0.807,1.104-2.224,2.108-4.053,2.818c-1.828,0.712-4.059,1.136-6.463,1.135
		c-0.003,0-0.007,0-0.011,0c-0.018,0-0.035,0-0.052,0v1.295c0.021,0,0.042,0,0.063,0c3.409-0.002,6.503-0.791,8.794-2.109
		c1.145-0.661,2.093-1.456,2.766-2.374c0.673-0.915,1.068-1.964,1.067-3.072C99.865,124.872,99.575,124.582,99.218,124.582"/>
	<path clip-path="url(#SVGID_6_)" fill="#3B3F43" d="M103.67,105.479c-0.715,0-1.295-0.579-1.295-1.295
		c0-0.715,0.58-1.295,1.295-1.295s1.295,0.58,1.295,1.295C104.965,104.899,104.385,105.479,103.67,105.479 M104.722,101.755
		c-2.011,0-3.642,1.631-3.642,3.644c0,2.012,1.631,3.643,3.642,3.643c2.013,0,3.644-1.631,3.644-3.643
		C108.365,103.386,106.734,101.755,104.722,101.755"/>
	<path clip-path="url(#SVGID_6_)" fill="#D5E1F2" d="M103.67,102.889c-0.715,0-1.295,0.58-1.295,1.295
		c0,0.716,0.58,1.295,1.295,1.295s1.295-0.579,1.295-1.295C104.965,103.469,104.385,102.889,103.67,102.889"/>
</g>
</svg>
