<?xml version="1.0" encoding="utf-8"?>
<!-- Generator: Adobe Illustrator 15.0.0, SVG Export Plug-In  -->
<!DOCTYPE svg PUBLIC "-//W3C//DTD SVG 1.1//EN" "http://www.w3.org/Graphics/SVG/1.1/DTD/svg11.dtd" [
	<!ENTITY ns_flows "http://ns.adobe.com/Flows/1.0/">
]>
<svg version="1.1"
	 xmlns="http://www.w3.org/2000/svg" xmlns:xlink="http://www.w3.org/1999/xlink" xmlns:a="http://ns.adobe.com/AdobeSVGViewerExtensions/3.0/"
	 x="0px" y="0px" width="174px" height="174px" viewBox="0 216.061 174 174" enable-background="new 0 216.061 174 174"
	 xml:space="preserve">
<defs>
</defs>
<path fill="#EDC71F" d="M174.424,303.272c0,48.166-39.046,87.212-87.212,87.212c-48.165,0-87.211-39.046-87.211-87.212
	s39.046-87.212,87.211-87.212C135.378,216.061,174.424,255.106,174.424,303.272"/>
<path fill="#EDC71F" d="M174.424,303.272c0,48.166-39.046,87.212-87.212,87.212c-48.165,0-87.211-39.046-87.211-87.212
	s39.046-87.212,87.211-87.212C135.378,216.061,174.424,255.106,174.424,303.272"/>
<g>
	<defs>
		<path id="SVGID_4_" d="M0,303.272c0,48.165,39.047,87.211,87.212,87.211c48.166,0,87.212-39.046,87.212-87.211
			c0-48.167-39.046-87.212-87.212-87.212C39.047,216.061,0,255.105,0,303.272"/>
	</defs>
	<clipPath id="SVGID_6_">
		<use xlink:href="#SVGID_4_"  overflow="visible"/>
	</clipPath>
	<g clip-path="url(#SVGID_6_)">
		<defs>
			<polyline id="SVGID_5_" points="49.583,447.241 236.032,447.241 236.032,255.552 49.583,255.552 49.583,447.241 			"/>
		</defs>
		<clipPath id="SVGID_8_">
			<use xlink:href="#SVGID_5_"  overflow="visible"/>
		</clipPath>
		<path clip-path="url(#SVGID_8_)" fill="#EDA603" d="M124.235,255.552L124.235,255.552l-0.073,0.084
			c1.939,1.937,3.14,4.614,3.14,7.572l0,0c0,0.001,0,0.001,0,0.001c0,0.016,0,0.03,0,0.046c0,0.003,0,0.005,0,0.007
			c-0.021,4.274-2.546,7.955-6.184,9.652c7.513,15.475,12.363,36.455,12.55,47.854c0,0.001,0,0.002,0,0.003
			c0.001,0.021,0.001,0.043,0.001,0.063c0,0.003,0,0.007,0.001,0.01c0,0.019,0,0.038,0,0.057c0,0.005,0,0.01,0,0.015
			c0.001,0.019,0.001,0.036,0.001,0.055c0,0.003,0,0.008,0,0.011c0.001,0.02,0.001,0.037,0.001,0.056c0,0.006,0,0.013,0,0.018
			c0,0.018,0,0.033,0,0.05c0.001,0.007,0.001,0.015,0.001,0.021c0,0.015,0,0.03,0,0.045c0,0.009,0,0.018,0,0.025
			c0,0.014,0,0.029,0.001,0.043c0,0.01,0,0.018,0,0.027c0,0.013,0,0.025,0,0.038c0,0.016,0,0.032,0,0.048c0,0.007,0,0.014,0,0.02
			c0,0.022,0,0.045,0,0.067l0,0l0,0l0,0c0,24.044-35.577,35.917-46.462,35.917c-7.187,0-26.237-5.542-37.588-16.718l-0.041,0.047
			l49.057,49.057c41.978-5.495,74.567-40.844,75.751-84.034L124.235,255.552"/>
	</g>
</g>
<path fill="#A86353" d="M65.354,264.479c-4.729,0-9.094,2.613-11.246,6.825c-8.121,15.9-13.357,38.518-13.357,50.135
	c0,24.044,35.941,35.917,46.462,35.917c10.885,0,46.462-11.873,46.462-35.917c0-11.617-5.235-34.234-13.357-50.135
	c-2.151-4.212-6.516-6.825-11.245-6.825H65.354"/>
<path fill="#A86353" d="M68.528,263.209c0,5.911-4.792,10.703-10.703,10.703s-10.702-4.792-10.702-10.703
	s4.791-10.703,10.702-10.703S68.528,257.298,68.528,263.209"/>
<path fill="#8A4C3D" d="M57.825,269.558c-3.501,0-6.349-2.848-6.349-6.349s2.848-6.35,6.349-6.35s6.349,2.849,6.349,6.35
	S61.326,269.558,57.825,269.558"/>
<path fill="#A86353" d="M127.302,263.209c0,5.911-4.792,10.703-10.703,10.703s-10.702-4.792-10.702-10.703
	s4.791-10.703,10.702-10.703S127.302,257.298,127.302,263.209"/>
<path fill="#8A4C3D" d="M116.599,269.558c-3.501,0-6.349-2.848-6.349-6.349s2.848-6.35,6.349-6.35s6.35,2.849,6.35,6.35
	S120.1,269.558,116.599,269.558"/>
<path fill="#C2B184" d="M97.552,345.202c0,3.906-4.629,7.074-10.34,7.074c-5.71,0-10.34-3.168-10.34-7.074
	c0-3.907,4.63-7.075,10.34-7.075C92.923,338.127,97.552,341.295,97.552,345.202"/>
<path fill="#E4D3A8" d="M87.212,292.052c-6.003,0-11.058,4.04-11.77,9.405l-5.026,37.862c-0.521,3.934,2.889,7.394,7.289,7.394
	h19.014c4.4,0,7.812-3.46,7.289-7.394l-5.025-37.862C98.27,296.092,93.214,292.052,87.212,292.052"/>
<path fill="#474747" d="M100.394,336.132c0,2.705-6.063,7.075-13.545,7.075c-7.479,0-13.544-4.37-13.544-7.075
	s6.064-4.898,13.544-4.898C94.33,331.233,100.394,333.427,100.394,336.132"/>
<path fill="#595959" d="M94.731,335.388c0,1.574-3.529,4.117-7.882,4.117c-4.354,0-7.883-2.543-7.883-4.117
	c0-1.573,3.529-2.85,7.883-2.85C91.202,332.538,94.731,333.814,94.731,335.388"/>
<path fill="#474747" d="M71.448,304.813c0,1.774-1.438,3.212-3.212,3.212c-1.775,0-3.213-1.438-3.213-3.212
	c0-1.773,1.438-3.212,3.213-3.212C70.01,301.601,71.448,303.039,71.448,304.813"/>
<path fill="#FFFFFF" d="M68.45,303.742c0,0.631-0.512,1.142-1.143,1.142s-1.142-0.511-1.142-1.142s0.511-1.143,1.142-1.143
	S68.45,303.111,68.45,303.742"/>
<path fill="#474747" d="M109.885,304.813c0,1.774-1.438,3.212-3.212,3.212c-1.775,0-3.213-1.438-3.213-3.212
	c0-1.773,1.438-3.212,3.213-3.212C108.447,301.601,109.885,303.039,109.885,304.813"/>
<path fill="#FFFFFF" d="M106.887,303.742c0,0.631-0.512,1.142-1.143,1.142s-1.142-0.511-1.142-1.142s0.511-1.143,1.142-1.143
	S106.887,303.111,106.887,303.742"/>
<g>
	<defs>
		<polyline id="SVGID_3_" points="86.87,357.355 133.674,357.355 133.674,252.506 86.87,252.506 86.87,357.355 		"/>
	</defs>
	<clipPath id="SVGID_10_">
		<use xlink:href="#SVGID_3_"  overflow="visible"/>
	</clipPath>
	<path clip-path="url(#SVGID_10_)" fill="#D89C15" d="M116.599,252.506L116.599,252.506c-5.911,0-10.702,4.791-10.702,10.702l0,0
		C105.897,257.298,110.688,252.506,116.599,252.506c2.953,0,5.627,1.196,7.563,3.13l0,0
		C122.226,253.702,119.552,252.506,116.599,252.506"/>
	<path clip-path="url(#SVGID_10_)" fill="#D88202" d="M133.674,321.371c0,0.022,0,0.045,0,0.067l0,0
		C133.674,321.416,133.674,321.394,133.674,321.371 M133.674,321.304c0,0.016,0,0.032,0,0.048
		C133.674,321.336,133.674,321.319,133.674,321.304 M133.674,321.238c0,0.01,0,0.019,0,0.027
		C133.674,321.256,133.674,321.248,133.674,321.238 M133.673,321.17c0,0.009,0,0.017,0,0.025
		C133.673,321.188,133.673,321.179,133.673,321.17 M133.672,321.104c0.001,0.007,0.001,0.014,0.001,0.021
		C133.673,321.118,133.673,321.11,133.672,321.104 M133.672,321.036c0,0.006,0,0.013,0,0.018
		C133.672,321.049,133.672,321.042,133.672,321.036 M133.671,320.97c0,0.003,0,0.008,0,0.011
		C133.671,320.978,133.671,320.973,133.671,320.97 M133.67,320.9c0,0.005,0,0.011,0,0.015
		C133.67,320.91,133.67,320.905,133.67,320.9 M133.669,320.834c0,0.004,0,0.006,0.001,0.01
		C133.669,320.841,133.669,320.837,133.669,320.834 M133.668,320.768c0,0.001,0,0.002,0,0.003
		C133.668,320.77,133.668,320.769,133.668,320.768 M127.302,263.255c0,0.003,0,0.005,0,0.007
		C127.302,263.26,127.302,263.258,127.302,263.255 M124.162,255.636L124.162,255.636c1.939,1.938,3.14,4.615,3.14,7.572l0,0
		C127.302,260.25,126.102,257.572,124.162,255.636"/>
	<path clip-path="url(#SVGID_10_)" fill="#994E38" d="M106.673,308.024c-1.775,0-3.213-1.438-3.213-3.212
		c0-1.773,1.438-3.212,3.213-3.212c1.774,0,3.212,1.438,3.212,3.212C109.885,306.587,108.447,308.024,106.673,308.024
		 M105.971,264.479H86.87v27.577c0.113-0.003,0.228-0.004,0.342-0.004c6.002,0,11.058,4.04,11.771,9.405l5.025,37.862
		c0.498,3.752-2.582,7.072-6.686,7.372c-0.999,3.191-5.146,5.585-10.11,5.585c-0.114,0-0.229-0.001-0.342-0.004v5.07
		c0.112,0.004,0.236,0.013,0.342,0.013c10.884,0,46.462-11.873,46.462-35.917c0-0.022,0-0.045,0-0.067c0-0.006,0-0.014,0-0.02
		c0-0.016,0-0.032,0-0.048c0-0.013,0-0.025,0-0.038c0-0.009,0-0.018,0-0.027c-0.001-0.014-0.001-0.029-0.001-0.043
		c0-0.009,0-0.017,0-0.025c0-0.016,0-0.029,0-0.045c0-0.008,0-0.015-0.001-0.021c0-0.017,0-0.032,0-0.05c0-0.005,0-0.012,0-0.018
		c0-0.019,0-0.036-0.001-0.056c0-0.003,0-0.008,0-0.011c0-0.019,0-0.036-0.001-0.055c0-0.004,0-0.01,0-0.015
		c0-0.019,0-0.038,0-0.057c-0.001-0.004-0.001-0.006-0.001-0.01c0-0.021,0-0.042-0.001-0.063c0-0.001,0-0.002,0-0.003
		c-0.187-11.4-5.048-32.369-12.564-47.848c-1.369,0.637-2.896,0.992-4.505,0.992C111.117,273.912,106.599,269.791,105.971,264.479"
		/>
	<path clip-path="url(#SVGID_10_)" fill="#994E38" d="M116.599,269.558c-3.501,0-6.349-2.848-6.349-6.349s2.848-6.35,6.349-6.35
		s6.35,2.849,6.35,6.35S120.1,269.558,116.599,269.558 M116.599,252.506c-5.911,0-10.701,4.792-10.702,10.702
		c0,0.432,0.032,0.854,0.082,1.271h-0.008l0,0c0.628,5.313,5.146,9.434,10.628,9.434c1.609,0,3.136-0.355,4.505-0.992
		c-0.001-0.003-0.003-0.007-0.005-0.011c3.645-1.694,6.182-5.367,6.203-9.647c0-0.002,0-0.004,0-0.007c0-0.015,0-0.031,0-0.047
		c0-2.957-1.2-5.635-3.14-7.572C122.226,253.702,119.552,252.506,116.599,252.506"/>
	<path clip-path="url(#SVGID_10_)" fill="#7E3C29" d="M116.599,256.859c-3.501,0-6.349,2.849-6.349,6.35s2.848,6.349,6.349,6.349
		s6.35-2.848,6.35-6.349S120.1,256.859,116.599,256.859"/>
	<path clip-path="url(#SVGID_10_)" fill="#B18B59" d="M97.322,346.691c-0.199,0.014-0.4,0.021-0.604,0.021H86.87v5.56
		c0.113,0.003,0.228,0.004,0.342,0.004C92.176,352.276,96.323,349.883,97.322,346.691"/>
	<path clip-path="url(#SVGID_10_)" fill="#CFA571" d="M87.212,292.052c-0.114,0-0.229,0.001-0.342,0.004v39.178
		c7.472,0.004,13.523,2.196,13.523,4.898s-6.052,7.066-13.523,7.075v3.506h9.849c0.203,0,0.404-0.008,0.604-0.021
		c4.104-0.3,7.184-3.62,6.686-7.372l-5.025-37.862C98.27,296.092,93.214,292.052,87.212,292.052"/>
	<path clip-path="url(#SVGID_10_)" fill="#413830" d="M86.87,331.233v1.305c4.343,0.004,7.861,1.278,7.861,2.85
		c0,1.572-3.519,4.109-7.861,4.117v3.702c7.472-0.009,13.523-4.373,13.523-7.075S94.342,331.237,86.87,331.233"/>
	<path clip-path="url(#SVGID_10_)" fill="#51463C" d="M86.87,332.538v6.967c4.343-0.008,7.861-2.545,7.861-4.117
		C94.731,333.816,91.213,332.542,86.87,332.538"/>
	<path clip-path="url(#SVGID_10_)" fill="#413830" d="M105.744,304.884c-0.631,0-1.142-0.511-1.142-1.142s0.511-1.143,1.142-1.143
		s1.143,0.512,1.143,1.143S106.375,304.884,105.744,304.884 M106.673,301.601c-1.775,0-3.213,1.438-3.213,3.212
		c0,1.774,1.438,3.212,3.213,3.212c1.774,0,3.212-1.438,3.212-3.212C109.885,303.039,108.447,301.601,106.673,301.601"/>
	<path clip-path="url(#SVGID_10_)" fill="#E8C8AC" d="M105.744,302.6c-0.631,0-1.142,0.512-1.142,1.143s0.511,1.142,1.142,1.142
		s1.143-0.511,1.143-1.142S106.375,302.6,105.744,302.6"/>
</g>
<g>
	<defs>
		<path id="SVGID_1_" d="M0.001,87.212c0,48.165,39.045,87.212,87.211,87.212s87.211-39.047,87.211-87.212
			C174.423,39.045,135.378,0,87.212,0S0.001,39.045,0.001,87.212"/>
	</defs>
	<clipPath id="SVGID_12_">
		<use xlink:href="#SVGID_1_"  overflow="visible"/>
	</clipPath>
	<g clip-path="url(#SVGID_12_)">
		<defs>
			<polyline id="SVGID_2_" points="28.716,232.621 244.671,232.621 244.671,43.813 28.716,43.813 28.716,232.621 			"/>
		</defs>
		<clipPath id="SVGID_14_">
			<use xlink:href="#SVGID_2_"  overflow="visible"/>
		</clipPath>
		<path clip-path="url(#SVGID_14_)" fill="#275172" d="M146.202,44.182c0.021,0.037,0.043,0.075,0.063,0.115c0,0,0,0,0,0.001
			c0.004,0.005,0.006,0.011,0.008,0.016c0.002,0.001,0.002,0.001,0.002,0.002c0.002,0.005,0.006,0.011,0.008,0.016
			c0,0.001,0,0.002,0.002,0.002c0.002,0.005,0.004,0.01,0.006,0.016c0.002,0.001,0.002,0.002,0.002,0.003
			c0.004,0.005,0.006,0.01,0.008,0.016l0.002,0.002c0.002,0.006,0.004,0.011,0.006,0.016c0.002,0.001,0.002,0.002,0.002,0.003
			c0.002,0.005,0.006,0.011,0.008,0.016c0,0.001,0,0.002,0.002,0.003c0.002,0.005,0.004,0.01,0.006,0.015
			c0.002,0.002,0.002,0.003,0.002,0.004c0.002,0.006,0.006,0.011,0.008,0.017c0,0,0,0,0,0.001c0.037,0.08,0.07,0.162,0.104,0.25
			c0,0,0,0.001,0.002,0.001c0.002,0.006,0.004,0.014,0.006,0.02l0,0c0.004,0.007,0.006,0.013,0.008,0.02c0,0.001,0,0.001,0,0.002
			c2.379,6.53-5.689,32.142-13.033,40.522c5.834,8.545,9.879,16.191,11.514,19.429c0.531,1.052,0.809,1.639,0.809,1.639
			l-45.996,28.379l-0.904,0.555l-9.324,5.75l0,0c-0.008,0.006-0.018,0.011-0.025,0.017c-0.703,0.426-1.494,0.638-2.285,0.638
			c-0.199,0-0.4-0.014-0.6-0.041c-0.598-0.081-1.18-0.286-1.711-0.613l-9.146-5.639l-0.176-0.111l-0.904-0.555l-45.697-28.204
			l-0.258,0.138L96.06,173.98c44.01-4.435,78.363-41.591,78.363-86.769c0-5.583-0.525-11.047-1.527-16.338L146.202,44.182"/>
	</g>
</g>
</svg>
