<?xml version="1.0" encoding="utf-8"?>
<!-- Generator: Adobe Illustrator 15.0.0, SVG Export Plug-In  -->
<!DOCTYPE svg PUBLIC "-//W3C//DTD SVG 1.1//EN" "http://www.w3.org/Graphics/SVG/1.1/DTD/svg11.dtd" [
	<!ENTITY ns_flows "http://ns.adobe.com/Flows/1.0/">
]>
<svg version="1.1"
	 xmlns="http://www.w3.org/2000/svg" xmlns:xlink="http://www.w3.org/1999/xlink" xmlns:a="http://ns.adobe.com/AdobeSVGViewerExtensions/3.0/"
	 x="0px" y="0px" width="174px" height="174px" viewBox="0 219.723 174 174" enable-background="new 0 219.723 174 174"
	 xml:space="preserve">
<defs>
</defs>
<path fill="#54C6FF" d="M174.423,306.935c0,48.166-39.045,87.212-87.211,87.212S0.001,355.101,0.001,306.935
	s39.045-87.212,87.211-87.212S174.423,258.769,174.423,306.935"/>
<g>
	<defs>
		<path id="SVGID_6_" d="M0.001,306.935c0,48.164,39.045,87.212,87.211,87.212s87.211-39.048,87.211-87.212
			c0-48.166-39.045-87.212-87.211-87.212S0.001,258.769,0.001,306.935"/>
	</defs>
	<clipPath id="SVGID_10_">
		<use xlink:href="#SVGID_6_"  overflow="visible"/>
	</clipPath>
	<g clip-path="url(#SVGID_10_)">
		<defs>
			<polyline id="SVGID_8_" points="32.153,453.68 244.671,453.68 244.671,261.708 32.153,261.708 32.153,453.68 			"/>
		</defs>
		<clipPath id="SVGID_12_">
			<use xlink:href="#SVGID_8_"  overflow="visible"/>
		</clipPath>
		<path clip-path="url(#SVGID_12_)" fill="#3B9CED" d="M144.007,261.708L144.007,261.708l-0.004,0.003
			c0.051,0.057,0.1,0.116,0.145,0.178l0,0c0.004,0.004,0.008,0.009,0.01,0.014c0.002,0.001,0.002,0.002,0.002,0.002
			c0.004,0.004,0.006,0.008,0.01,0.012c0,0.001,0,0.001,0,0.001c0.004,0.005,0.006,0.009,0.01,0.014c0,0,0,0,0,0.001
			c0.475,0.676,0.693,1.898,0.699,3.521v0.145c-0.008,1.949-0.311,4.449-0.84,7.262c0,0.001,0,0.002,0,0.003
			c-0.002,0.01-0.006,0.023-0.008,0.033c-0.002,0.011-0.004,0.021-0.006,0.031c0,0.004,0,0.005-0.002,0.01
			c-2.182,11.538-8.137,28.232-13.027,33.309c6.266,13.138,11.357,25.479,11.357,26.232c-0.107,0-0.221,0-0.332,0.002
			c-0.102,0.002-0.203,0.005-0.301,0.012l0,0l0,0c-0.023,0-0.047,0.001-0.07,0.001c-0.006,0-0.01,0-0.016,0
			c-0.018,0.001-0.035,0.001-0.053,0.001c-0.008,0-0.014,0.001-0.021,0.001c-0.016,0-0.033,0-0.049,0.001c-0.006,0-0.014,0-0.02,0
			c-0.018,0.001-0.035,0.001-0.053,0.001c-0.004,0-0.012,0.001-0.016,0.001c-0.02,0-0.039,0.001-0.059,0.001
			c-0.002,0-0.008,0-0.01,0c-6.107,0.143-11.398,1.445-16.141,3.36c-0.002,0.001-0.002,0.001-0.004,0.002
			c-0.004,0.002-0.01,0.004-0.014,0.006c-8.602,3.478-15.396,8.969-21.99,13.197c0,0.001-0.002,0.001-0.002,0.002
			c-0.002,0-0.002,0-0.002,0.001c-2.547,1.633-5.064,3.078-7.645,4.146v0.42l0,0c0,4.55-3.688,8.238-8.236,8.238
			s-8.236-3.688-8.236-8.238v-0.375c-13.619-5.34-28.029-20.353-46.301-20.766c-0.203-0.014-0.42-0.014-0.625-0.014l61.439,61.438
			c45.182-3.271,80.824-40.967,80.824-86.981c0-5.586-0.525-11.045-1.529-16.338L144.007,261.708"/>
	</g>
</g>
<path fill="#6C7B82" d="M43.669,306.486c-7.184-6.935-16.867-39.916-13.395-44.598c3.023-4.075,19.396,0.518,31.063,8.159
	c6.691,4.384,11.947,8.895,15.801,12.774C65.147,289.123,55.659,300.187,43.669,306.486"/>
<path fill="#CBD3D6" d="M46.272,305.119c-9.396-12.467-13.52-34.976-12.131-38.675c3.137-1.492,16.266,1.857,26.941,8.852
	c4.412,2.889,8.604,6.128,12.305,9.496L46.272,305.119z"/>
<path fill="#6C7B82" d="M130.753,306.486c7.186-6.935,16.869-39.916,13.395-44.598c-3.021-4.075-19.396,0.518-31.061,8.159
	c-6.691,4.384-11.947,8.895-15.801,12.774C109.276,289.123,118.763,300.187,130.753,306.486"/>
<path fill="#CBD3D6" d="M128.151,305.119c9.396-12.467,13.52-34.976,12.131-38.675c-3.139-1.492-16.268,1.857-26.943,8.852
	c-4.412,2.889-8.604,6.128-12.303,9.496L128.151,305.119"/>
<path fill="#6C7B82" d="M142.353,332.478c-0.207,0-0.428,0-0.635,0.014c-24.766,0.387-36.145,19.832-51.766,22.352
	c-0.881,0.152-1.791,0.221-2.701,0.221c-0.895,0-1.803-0.082-2.699-0.234c-15.275-2.604-31.035-21.869-51.768-22.338
	c-0.205-0.014-0.426-0.014-0.633-0.014c0-3.787,19.836-48.116,29.396-56.933h51.408
	C122.517,284.361,142.353,330.989,142.353,332.478"/>
<path fill="#CBD3D6" d="M118.72,322.404c1.799-2.829,2.855-6.179,2.855-9.78c0-10.095-8.184-18.276-18.275-18.276
	c-6.924,0-12.947,3.851-16.047,9.526c-3.102-5.676-9.125-9.526-16.049-9.526c-10.092,0-18.275,8.182-18.275,18.276
	c0,3.602,1.057,6.951,2.855,9.78c-9.01,0.247-17.139,4.054-22.998,10.087c20.73,0.469,36.49,19.734,51.766,22.338
	c0.896,0.152,1.805,0.234,2.701,0.234c0.908,0,1.816-0.068,2.699-0.22c15.621-2.521,27-21.966,51.768-22.353
	C135.858,326.458,127.729,322.651,118.72,322.404"/>
<path fill="#F5BABF" d="M87.321,361.87c-4.549,0-8.236-3.688-8.236-8.238v-12.528h16.473v12.528
	C95.558,358.182,91.87,361.87,87.321,361.87"/>
<path fill="#F58790" d="M86.491,341.657v17.443c0,0.459,0.371,0.83,0.83,0.83s0.83-0.371,0.83-0.83v-17.443
	c0-0.459-0.371-0.83-0.83-0.83S86.491,341.198,86.491,341.657"/>
<path fill="#E7F1F5" d="M89.366,338.749c0,3.724-4.184,6.742-9.344,6.742s-9.344-3.019-9.344-6.742c0-3.723,4.184-6.74,9.344-6.74
	S89.366,335.026,89.366,338.749"/>
<path fill="#E7F1F5" d="M103.825,338.749c0,3.724-4.184,6.742-9.344,6.742s-9.344-3.019-9.344-6.742c0-3.723,4.184-6.74,9.344-6.74
	S103.825,335.026,103.825,338.749"/>
<path fill="#474747" d="M97.081,332.521c0,1.605-6.09,4.291-9.828,4.291c-3.461,0-9.83-2.686-9.83-4.291
	c0-1.606,4.4-2.908,9.83-2.908C92.681,329.612,97.081,330.914,97.081,332.521"/>
<path fill="#B3B3B3" d="M92.146,331.773c0,0.749-3.033,2.001-4.895,2.001c-1.723,0-4.893-1.252-4.893-2.001s2.191-1.354,4.893-1.354
	C89.954,330.419,92.146,331.024,92.146,331.773"/>
<path fill="#418ED1" d="M103.464,312.028c-3.98,0.76-6.738,4.256-6.16,7.807c0.207,1.279,0.832,2.384,1.719,3.248
	c1.502-1.221,3.52-2.166,5.816-2.604s4.492-0.298,6.289,0.291c0.561-1.14,0.797-2.408,0.588-3.688
	C111.138,313.53,107.444,311.269,103.464,312.028"/>
<g>
	<defs>
		<path id="SVGID_5_" d="M103.464,312.028c-3.98,0.761-6.74,4.255-6.16,7.807c0.207,1.279,0.832,2.383,1.717,3.247
			c1.504-1.22,3.521-2.165,5.818-2.604c2.297-0.438,4.492-0.297,6.289,0.293c0.559-1.142,0.797-2.409,0.59-3.688
			c-0.504-3.088-3.363-5.2-6.717-5.2C104.499,311.882,103.983,311.929,103.464,312.028"/>
	</defs>
	<clipPath id="SVGID_14_">
		<use xlink:href="#SVGID_5_"  overflow="visible"/>
	</clipPath>
	<path clip-path="url(#SVGID_14_)" fill="#474747" d="M108.819,317.003c0.43,2.639-1.197,5.153-3.633,5.619
		c-2.434,0.465-4.756-1.297-5.186-3.935c-0.428-2.638,1.197-5.153,3.633-5.618C106.067,312.604,108.39,314.365,108.819,317.003"/>
	<path clip-path="url(#SVGID_14_)" fill="#FFFFFF" d="M103.653,315.339c0.197,1.217-0.553,2.378-1.676,2.593
		c-1.125,0.215-2.197-0.599-2.395-1.815c-0.199-1.218,0.551-2.379,1.676-2.594C102.382,313.309,103.454,314.122,103.653,315.339"/>
</g>
<path fill="#418ED1" d="M71.04,312.028c-3.98-0.76-7.674,1.502-8.252,5.053c-0.209,1.28,0.029,2.549,0.588,3.688
	c1.797-0.589,3.992-0.729,6.289-0.291s4.314,1.384,5.818,2.604c0.885-0.864,1.51-1.969,1.717-3.248
	C77.778,316.284,75.021,312.788,71.04,312.028"/>
<g>
	<defs>
		<path id="SVGID_4_" d="M62.786,317.082c-0.207,1.279,0.031,2.547,0.59,3.688c1.797-0.59,3.992-0.73,6.289-0.293
			c2.297,0.439,4.314,1.385,5.818,2.604c0.885-0.864,1.51-1.968,1.717-3.247c0.578-3.552-2.18-7.046-6.16-7.807
			c-0.52-0.1-1.035-0.146-1.539-0.146C66.147,311.882,63.29,313.994,62.786,317.082"/>
	</defs>
	<clipPath id="SVGID_16_">
		<use xlink:href="#SVGID_4_"  overflow="visible"/>
	</clipPath>
	<path clip-path="url(#SVGID_16_)" fill="#474747" d="M74.503,318.688c-0.43,2.638-2.752,4.399-5.186,3.935
		c-2.436-0.465-4.063-2.981-3.633-5.618c0.43-2.638,2.752-4.399,5.186-3.935C73.306,313.534,74.931,316.05,74.503,318.688"/>
	<path clip-path="url(#SVGID_16_)" fill="#FFFFFF" d="M70.173,315.209c-0.197,1.217-1.27,2.03-2.395,1.815
		c-1.123-0.215-1.873-1.375-1.676-2.592c0.199-1.219,1.27-2.031,2.395-1.816C69.62,312.831,70.37,313.992,70.173,315.209"/>
</g>
<path fill="#6C7B82" d="M67.349,306.661l-5.002,1.863c-1.242,0.462-2.639-0.176-3.102-1.418c-0.461-1.242,0.178-2.638,1.418-3.1
	l5.002-1.863c1.244-0.463,2.639,0.175,3.102,1.418C69.229,304.804,68.591,306.198,67.349,306.661"/>
<path fill="#6C7B82" d="M107.155,306.661l5.002,1.863c1.242,0.462,2.639-0.176,3.102-1.418c0.461-1.242-0.176-2.638-1.418-3.1
	l-5.002-1.863c-1.244-0.463-2.639,0.175-3.102,1.418C105.274,304.804,105.913,306.198,107.155,306.661"/>
<g>
	<defs>
		<polyline id="SVGID_3_" points="87.124,361.869 144.878,361.869 144.878,260.369 87.124,260.369 87.124,361.869 		"/>
	</defs>
	<clipPath id="SVGID_18_">
		<use xlink:href="#SVGID_3_"  overflow="visible"/>
	</clipPath>
	<path clip-path="url(#SVGID_18_)" fill="#2F85D0" d="M141.364,332.498c-0.004,0-0.006,0-0.01,0
		C141.356,332.498,141.362,332.498,141.364,332.498 M141.438,332.496c-0.006,0-0.01,0.001-0.016,0.001
		C141.427,332.497,141.435,332.496,141.438,332.496 M141.511,332.495c-0.006,0-0.014,0-0.02,0
		C141.497,332.495,141.505,332.495,141.511,332.495 M141.581,332.493c-0.006,0-0.016,0.001-0.021,0.001
		C141.567,332.494,141.573,332.493,141.581,332.493 M141.649,332.492c-0.006,0-0.01,0-0.016,0
		C141.64,332.492,141.644,332.492,141.649,332.492 M142.021,332.479c-0.102,0.002-0.203,0.005-0.301,0.012l0,0l0,0
		C141.817,332.484,141.919,332.481,142.021,332.479 M144.024,272.927c0,0.003,0,0.007-0.002,0.01
		C144.024,272.932,144.024,272.931,144.024,272.927 M144.038,272.862c-0.002,0.011-0.006,0.022-0.008,0.033
		C144.032,272.886,144.036,272.872,144.038,272.862 M144.179,261.932c1.049,1.496,0.848,5.67-0.141,10.928
		c0.529-2.813,0.832-5.313,0.84-7.262v-0.145C144.872,263.83,144.653,262.607,144.179,261.932 M144.169,261.917
		c0.004,0.005,0.006,0.009,0.01,0.014C144.175,261.926,144.173,261.922,144.169,261.917 M144.159,261.904
		c0.004,0.004,0.006,0.008,0.01,0.012C144.165,261.912,144.163,261.908,144.159,261.904 M144.147,261.889L144.147,261.889
		c0.004,0.005,0.008,0.009,0.01,0.014C144.155,261.897,144.151,261.893,144.147,261.889L144.147,261.889"/>
	<path clip-path="url(#SVGID_18_)" fill="#566972" d="M139.567,260.369h-0.145c-6.291,0.029-17.082,3.802-25.619,9.216
		c-0.24,0.153-0.48,0.308-0.717,0.463l0,0c-2.793,1.829-5.32,3.679-7.615,5.497h-0.012l0,0h7.496
		c0.002,0.001,0.002,0.001,0.002,0.002c0.127-0.084,0.254-0.168,0.381-0.251c9-5.896,19.74-9.201,24.771-9.201
		c0.938,0,1.678,0.115,2.172,0.35c1.318,3.515-2.338,24.008-10.764,36.736c0.496,1.02,0.986,2.039,1.471,3.054
		c4.895-5.068,10.85-21.761,13.033-33.298c0.002-0.003,0.002-0.007,0.002-0.01c0.002-0.011,0.004-0.021,0.006-0.031
		s0.006-0.022,0.008-0.033c0-0.001,0-0.002,0-0.003c0.988-5.258,1.189-9.432,0.141-10.928c0-0.001,0-0.001,0-0.001
		c-0.004-0.005-0.006-0.009-0.01-0.014c0,0,0,0,0-0.001c-0.004-0.004-0.006-0.008-0.01-0.012c0-0.001,0-0.001-0.002-0.002
		c-0.002-0.005-0.006-0.009-0.01-0.014l0,0C143.382,260.855,141.757,260.38,139.567,260.369"/>
	<path clip-path="url(#SVGID_18_)" fill="#A1B4BC" d="M138.11,266.095c-5.031,0-15.771,3.306-24.771,9.201
		c-0.127,0.083-0.254,0.167-0.381,0.251c4.342,4.005,10.801,15.806,16.561,27.634c8.426-12.729,12.082-33.222,10.764-36.736
		C139.788,266.21,139.048,266.095,138.11,266.095"/>
	<path clip-path="url(#SVGID_18_)" fill="#566972" d="M112.956,275.545h-7.496H87.124v28.099c0.043,0.077,0.086,0.153,0.129,0.23
		c3.1-5.676,9.123-9.526,16.047-9.526c10.092,0,18.275,8.182,18.275,18.276c0,3.602-1.057,6.951-2.855,9.78
		c9.01,0.247,17.139,4.054,23,10.087c0.098-0.007,0.199-0.01,0.301-0.012c0.111-0.002,0.223-0.002,0.332-0.002
		c0-0.754-5.096-13.1-11.365-26.241c0.002-0.001,0.002-0.001,0.002-0.002c-0.484-1.015-0.975-2.034-1.471-3.054
		c-5.76-11.828-12.219-23.629-16.561-27.634C112.958,275.546,112.958,275.546,112.956,275.545"/>
	<path clip-path="url(#SVGID_18_)" fill="#A1B4BC" d="M99.022,323.083c-0.887-0.864-1.512-1.969-1.719-3.248
		c-0.578-3.551,2.18-7.047,6.16-7.807c0.52-0.1,1.035-0.146,1.539-0.146c3.354,0,6.211,2.112,6.713,5.199
		c0.209,1.28-0.027,2.549-0.588,3.688c-0.861-0.282-1.814-0.462-2.828-0.523l0,0c-0.033-0.002-0.066-0.004-0.102-0.006
		c-0.229-0.012-0.461-0.019-0.695-0.019c-0.859,0-1.754,0.083-2.664,0.257C102.542,320.917,100.524,321.862,99.022,323.083
		 M112.991,308.675c-0.277,0-0.561-0.048-0.834-0.15l-5.002-1.863c-1.242-0.463-1.881-1.857-1.418-3.1
		c0.359-0.968,1.285-1.569,2.266-1.569c0.277,0,0.561,0.049,0.836,0.151l5.002,1.863c1.242,0.462,1.879,1.857,1.418,3.1
		C114.897,308.074,113.972,308.675,112.991,308.675 M103.3,294.348c-6.924,0-12.947,3.851-16.047,9.526
		c-0.043-0.077-0.086-0.153-0.129-0.23v25.969c0.043,0,0.086,0,0.129,0c5.137,0,9.355,1.166,9.791,2.653
		c3.914,0.804,6.781,3.401,6.781,6.483c0,3.461-3.615,6.313-8.268,6.698v7.765l0,0v-0.004c12.943-5.354,24.314-20.21,45.797-20.71
		c0.004,0,0.006,0,0.01,0c0.02-0.001,0.039-0.001,0.059-0.001c0.006,0,0.01-0.001,0.016-0.001c0.02,0,0.035,0,0.053-0.001
		c0.006,0,0.014,0,0.02,0c0.018-0.001,0.031-0.001,0.049-0.001c0.006,0,0.016-0.001,0.021-0.001c0.018,0,0.035,0,0.053-0.001
		c0.006,0,0.01,0,0.016,0c0.023,0,0.047-0.001,0.07-0.001l0,0c-5.861-6.033-13.99-9.84-23-10.087
		c1.799-2.829,2.855-6.179,2.855-9.78C121.575,302.529,113.392,294.348,103.3,294.348"/>
	<path clip-path="url(#SVGID_18_)" fill="#C29EA8" d="M88.151,343.708v15.393c0,0.459-0.371,0.83-0.83,0.83
		c-0.068,0-0.133-0.008-0.197-0.023v1.941l0.197,0.021c4.549,0,8.236-3.688,8.236-8.237v-0.42v-7.765
		c-0.352,0.029-0.711,0.044-1.076,0.044C92.04,345.491,89.815,344.815,88.151,343.708"/>
	<path clip-path="url(#SVGID_18_)" fill="#C2737E" d="M87.251,343.021c-0.041,0.037-0.084,0.073-0.127,0.109v16.777
		c0.064,0.016,0.129,0.023,0.197,0.023c0.459,0,0.83-0.371,0.83-0.83v-15.393C87.829,343.495,87.528,343.265,87.251,343.021"/>
	<path clip-path="url(#SVGID_18_)" fill="#B7CDD7" d="M87.124,342.906v0.224c0.043-0.036,0.086-0.072,0.127-0.109
		C87.208,342.982,87.167,342.944,87.124,342.906"/>
	<path clip-path="url(#SVGID_18_)" fill="#B7CDD7" d="M97.044,332.266c0.025,0.084,0.037,0.169,0.037,0.255
		c0,1.605-6.09,4.291-9.828,4.291c-0.043,0-0.086,0-0.129-0.001v6.096c0.043,0.038,0.084,0.076,0.127,0.114
		c0.277,0.244,0.578,0.475,0.9,0.688c1.664,1.107,3.889,1.783,6.33,1.783c0.365,0,0.725-0.015,1.076-0.044
		c4.652-0.386,8.268-3.237,8.268-6.698C103.825,335.667,100.958,333.069,97.044,332.266"/>
	<path clip-path="url(#SVGID_18_)" fill="#383C3E" d="M87.253,329.612c-0.043,0-0.086,0-0.129,0v0.807c0.043,0,0.086,0,0.127,0
		c2.703,0,4.895,0.605,4.895,1.354s-3.033,2.001-4.895,2.001c-0.041,0-0.084-0.001-0.127-0.002v3.038
		c0.043,0.001,0.086,0.001,0.129,0.001c3.738,0,9.828-2.686,9.828-4.291c0-0.086-0.012-0.171-0.037-0.255
		C96.608,330.778,92.39,329.612,87.253,329.612"/>
	<path clip-path="url(#SVGID_18_)" fill="#8E989D" d="M87.251,330.419c-0.041,0-0.084,0-0.127,0v3.354
		c0.043,0.001,0.086,0.002,0.127,0.002c1.861,0,4.895-1.252,4.895-2.001S89.954,330.419,87.251,330.419"/>
	<path clip-path="url(#SVGID_18_)" fill="#3379B8" d="M105.003,311.882c-0.504,0-1.02,0.047-1.539,0.146
		c-3.98,0.76-6.738,4.256-6.16,7.807c0.207,1.279,0.832,2.384,1.719,3.248c1.502-1.221,3.52-2.166,5.816-2.604
		c0.91-0.174,1.805-0.257,2.664-0.257c0.234,0,0.467,0.007,0.695,0.019c-0.229-0.013-0.463-0.019-0.699-0.019
		c-0.857,0-1.752,0.083-2.66,0.256c-1.195,0.229-2.314,0.595-3.326,1.064c-0.768-0.706-1.322-1.695-1.512-2.854
		c-0.088-0.54-0.088-1.073-0.016-1.587c-0.199-0.278-0.342-0.612-0.402-0.984c-0.199-1.218,0.551-2.379,1.676-2.594
		c0.121-0.022,0.24-0.034,0.359-0.034c0.219,0,0.432,0.038,0.633,0.108c0.42-0.251,0.883-0.433,1.383-0.527
		c0.262-0.05,0.523-0.074,0.781-0.074c2.133,0,4.021,1.654,4.404,4.008c0.188,1.159-0.02,2.295-0.52,3.243
		c1.014,0.062,1.967,0.241,2.828,0.523c0.561-1.14,0.797-2.408,0.588-3.688C111.214,313.994,108.356,311.882,105.003,311.882"/>
	<path clip-path="url(#SVGID_18_)" fill="#383C3E" d="M104.415,312.995c-0.258,0-0.52,0.024-0.781,0.074
		c-0.5,0.095-0.963,0.276-1.383,0.527c0.705,0.246,1.264,0.896,1.402,1.742c0.197,1.217-0.553,2.378-1.676,2.593
		c-0.121,0.023-0.242,0.034-0.361,0.034c-0.648,0-1.246-0.33-1.631-0.865c-0.072,0.514-0.072,1.047,0.016,1.587
		c0.189,1.159,0.744,2.148,1.512,2.854c1.012-0.47,2.131-0.836,3.326-1.064c0.908-0.173,1.803-0.256,2.66-0.256
		c0.236,0,0.471,0.006,0.699,0.019c0.035,0.002,0.068,0.004,0.102,0.006l0,0c0.5-0.948,0.707-2.084,0.52-3.243
		C108.437,314.649,106.548,312.995,104.415,312.995"/>
	<path clip-path="url(#SVGID_18_)" fill="#CAD9E0" d="M101.618,313.488c-0.119,0-0.238,0.012-0.359,0.034
		c-1.125,0.215-1.875,1.376-1.676,2.594c0.061,0.372,0.203,0.706,0.402,0.984c0.385,0.535,0.982,0.865,1.631,0.865
		c0.119,0,0.24-0.011,0.361-0.034c1.123-0.215,1.873-1.376,1.676-2.593c-0.139-0.846-0.697-1.496-1.402-1.742
		C102.05,313.526,101.837,313.488,101.618,313.488"/>
	<path clip-path="url(#SVGID_18_)" fill="#566972" d="M108.003,301.992c-0.98,0-1.906,0.602-2.266,1.569
		c-0.463,1.242,0.176,2.637,1.418,3.1l5.002,1.863c0.273,0.103,0.557,0.15,0.834,0.15c0.98,0,1.906-0.601,2.268-1.568
		c0.461-1.242-0.176-2.638-1.418-3.1l-5.002-1.863C108.563,302.041,108.28,301.992,108.003,301.992"/>
</g>
<g>
	<defs>
		<path id="SVGID_1_" d="M0,87.212c0,48.165,39.046,87.212,87.212,87.212c48.165,0,87.212-39.047,87.212-87.212
			C174.424,39.046,135.377,0,87.212,0C39.046,0,0,39.046,0,87.212"/>
	</defs>
	<clipPath id="SVGID_20_">
		<use xlink:href="#SVGID_1_"  overflow="visible"/>
	</clipPath>
	<g clip-path="url(#SVGID_20_)">
		<defs>
			<polyline id="SVGID_2_" points="47.617,229.655 242.288,229.655 242.288,42.062 47.617,42.062 47.617,229.655 			"/>
		</defs>
		<clipPath id="SVGID_22_">
			<use xlink:href="#SVGID_2_"  overflow="visible"/>
		</clipPath>
		<path clip-path="url(#SVGID_22_)" fill="#EDB4C5" d="M132.062,162.023c-9.494,5.704-20.164,9.652-31.561,11.395l0,0
			C111.896,171.675,122.567,167.727,132.062,162.023 M132.306,161.875c-0.032,0.02-0.063,0.039-0.097,0.059
			C132.242,161.914,132.273,161.896,132.306,161.875 M132.34,161.855c-0.007,0.004-0.012,0.007-0.019,0.011
			C132.328,161.862,132.333,161.859,132.34,161.855"/>
		<path clip-path="url(#SVGID_22_)" fill="#D64C6F" d="M140.757,42.575c0.307,0.661,0.453,1.618,0.462,2.798v0.017
			c0,0.065,0,0.131,0,0.198v0.017c-0.005,0.685-0.054,1.439-0.142,2.25v0.001c-0.002,0.012-0.003,0.022-0.004,0.034
			c-0.001,0.004-0.001,0.008-0.002,0.012c0,0.006-0.001,0.013-0.002,0.02c-1.002,9.029-6.853,24.985-11.965,29.711
			c4.426,8.43,7.293,17.378,7.361,25.341c0,0.002,0,0.004,0,0.006c0,0.03,0,0.058,0,0.087c0,0.003,0,0.007,0,0.01
			c0,0.028,0.001,0.057,0.001,0.085c0,0.003,0,0.006,0,0.009c0,0.029,0,0.059,0,0.088l0,0l0,0l0,0
			c0,14.535-35.104,37.709-49.365,37.709c-8.201,0-27.3-9.021-39.192-20.144l52.592,52.592c11.396-1.742,22.066-5.69,31.561-11.395
			c0.049-0.03,0.098-0.059,0.147-0.089c0.033-0.02,0.064-0.039,0.097-0.059c0.005-0.003,0.011-0.007,0.016-0.009
			c0.007-0.004,0.012-0.007,0.019-0.011c25.224-15.285,42.084-42.997,42.084-74.643c0-3.986-0.268-7.911-0.786-11.755
			L140.757,42.575"/>
	</g>
</g>
</svg>
