<?xml version="1.0" encoding="utf-8"?>
<!-- Generator: Adobe Illustrator 15.0.0, SVG Export Plug-In  -->
<!DOCTYPE svg PUBLIC "-//W3C//DTD SVG 1.1//EN" "http://www.w3.org/Graphics/SVG/1.1/DTD/svg11.dtd" [
	<!ENTITY ns_flows "http://ns.adobe.com/Flows/1.0/">
]>
<svg version="1.1"
	 xmlns="http://www.w3.org/2000/svg" xmlns:xlink="http://www.w3.org/1999/xlink" xmlns:a="http://ns.adobe.com/AdobeSVGViewerExtensions/3.0/"
	 x="0px" y="0px" width="174px" height="174px" viewBox="0 217.913 174 174" enable-background="new 0 217.913 174 174"
	 xml:space="preserve">
<defs>
</defs>
<path fill="#336885" d="M174.423,305.125c0,48.167-39.045,87.212-87.211,87.212S0.001,353.292,0.001,305.125
	c0-48.166,39.045-87.212,87.211-87.212S174.423,256.959,174.423,305.125"/>
<g>
	<defs>
		<path id="SVGID_4_" d="M0.001,305.125c0,48.165,39.045,87.212,87.211,87.212s87.211-39.047,87.211-87.212
			c0-48.167-39.045-87.212-87.211-87.212S0.001,256.958,0.001,305.125"/>
	</defs>
	<clipPath id="SVGID_6_">
		<use xlink:href="#SVGID_4_"  overflow="visible"/>
	</clipPath>
	<g clip-path="url(#SVGID_6_)">
		<defs>
			<polyline id="SVGID_5_" points="28.716,450.534 244.671,450.534 244.671,261.726 28.716,261.726 28.716,450.534 			"/>
		</defs>
		<clipPath id="SVGID_8_">
			<use xlink:href="#SVGID_5_"  overflow="visible"/>
		</clipPath>
		<path clip-path="url(#SVGID_8_)" fill="#275172" d="M146.202,262.095c0.021,0.037,0.043,0.075,0.063,0.115c0,0,0,0,0,0.001
			c0.004,0.005,0.006,0.011,0.008,0.016c0.002,0.001,0.002,0.001,0.002,0.002c0.002,0.005,0.006,0.011,0.008,0.016
			c0,0.001,0,0.002,0.002,0.002c0.002,0.005,0.004,0.01,0.006,0.016c0.002,0.001,0.002,0.002,0.002,0.003
			c0.004,0.005,0.006,0.01,0.008,0.016l0.002,0.002c0.002,0.006,0.004,0.011,0.006,0.016c0.002,0.001,0.002,0.002,0.002,0.003
			c0.002,0.005,0.006,0.011,0.008,0.016c0,0.001,0,0.002,0.002,0.003c0.002,0.005,0.004,0.01,0.006,0.015
			c0.002,0.002,0.002,0.003,0.002,0.004c0.002,0.006,0.006,0.011,0.008,0.017c0,0,0,0,0,0.001c0.037,0.08,0.07,0.162,0.104,0.25
			c0,0,0,0.001,0.002,0.001c0.002,0.006,0.004,0.014,0.006,0.02l0,0c0.004,0.007,0.006,0.013,0.008,0.02c0,0.001,0,0.001,0,0.002
			c2.379,6.53-5.689,32.142-13.033,40.522c5.834,8.545,9.879,16.191,11.514,19.429c0.531,1.052,0.809,1.639,0.809,1.639
			l-45.996,28.379l-0.904,0.555l-9.324,5.75l0,0c-0.008,0.006-0.018,0.011-0.025,0.017c-0.703,0.426-1.494,0.638-2.285,0.638
			c-0.199,0-0.4-0.014-0.6-0.041c-0.598-0.081-1.18-0.286-1.711-0.613l-9.146-5.639l-0.176-0.111l-0.904-0.555l-45.697-28.204
			l-0.258,0.138l67.344,67.344c44.01-4.435,78.363-41.591,78.363-86.769c0-5.583-0.525-11.047-1.527-16.338L146.202,262.095"/>
	</g>
</g>
<path fill="#FF7B4A" d="M42.343,304.51c-8.137-6.916-18.068-38.592-13.754-42.904c4.207-4.207,35.984,5.619,42.9,13.755
	L42.343,304.51z"/>
<path fill="#C45329" d="M45.917,300.529c-5.141-4.371-11.418-24.387-8.691-27.112c2.658-2.658,22.74,3.551,27.109,8.692
	C58.196,288.249,52.056,294.389,45.917,300.529"/>
<path fill="#FF7B4A" d="M132.081,304.51c8.137-6.916,18.066-38.592,13.754-42.904c-4.207-4.207-35.986,5.619-42.902,13.755
	L132.081,304.51"/>
<path fill="#C45329" d="M128.507,300.529c5.141-4.371,11.416-24.387,8.691-27.112c-2.658-2.658-22.74,3.551-27.111,8.692
	C116.228,288.249,122.366,294.389,128.507,300.529"/>
<path fill="#FF7B4A" d="M145.741,324.237l-45.994,28.379l-0.904,0.555l-0.27,0.158l-9.055,5.59
	c-1.416,0.875-3.205,0.875-4.621,0.002l-9.146-5.639l-0.176-0.111l-0.904-0.555l-45.98-28.379c0,0,6.223-13.172,16.332-26.679
	c1.793-2.396,3.715-4.811,5.73-7.159c9.982-11.602,22.664-21.712,36.457-21.712c13.775,0,26.439,10.095,36.455,21.681
	c2.031,2.364,3.969,4.778,5.744,7.19C139.536,311.065,145.741,324.237,145.741,324.237"/>
<path fill="#FF936B" d="M81.155,324.687c0,2.102-0.416,3.805-0.932,3.805c-0.514,0-0.932-1.703-0.932-3.805s0.418-3.805,0.932-3.805
	C80.739,320.882,81.155,322.585,81.155,324.687"/>
<path fill="#FF936B" d="M85.813,324.687c0,2.102-0.416,3.805-0.932,3.805c-0.514,0-0.932-1.703-0.932-3.805s0.418-3.805,0.932-3.805
	C85.397,320.882,85.813,322.585,85.813,324.687"/>
<path fill="#FF936B" d="M90.472,324.687c0,2.102-0.416,3.805-0.932,3.805c-0.514,0-0.932-1.703-0.932-3.805s0.418-3.805,0.932-3.805
	C90.056,320.882,90.472,322.585,90.472,324.687"/>
<path fill="#FF936B" d="M95.13,324.687c0,2.102-0.416,3.805-0.932,3.805c-0.514,0-0.932-1.703-0.932-3.805s0.418-3.805,0.932-3.805
	C94.714,320.882,95.13,322.585,95.13,324.687"/>
<path fill="#FF936B" d="M83.485,334.251c0,2.102-0.418,3.805-0.932,3.805c-0.516,0-0.932-1.703-0.932-3.805s0.416-3.805,0.932-3.805
	C83.067,330.446,83.485,332.149,83.485,334.251"/>
<path fill="#FF936B" d="M88.144,334.251c0,2.102-0.418,3.805-0.932,3.805c-0.516,0-0.932-1.703-0.932-3.805s0.416-3.805,0.932-3.805
	C87.726,330.446,88.144,332.149,88.144,334.251"/>
<path fill="#FF936B" d="M92.802,334.251c0,2.102-0.418,3.805-0.932,3.805c-0.516,0-0.932-1.703-0.932-3.805s0.416-3.805,0.932-3.805
	C92.384,330.446,92.802,332.149,92.802,334.251"/>
<path fill="#FF936B" d="M85.813,343.302c0,2.102-0.416,3.805-0.932,3.805c-0.514,0-0.932-1.703-0.932-3.805s0.418-3.805,0.932-3.805
	C85.397,339.497,85.813,341.2,85.813,343.302"/>
<path fill="#FF936B" d="M90.472,343.302c0,2.102-0.416,3.805-0.932,3.805c-0.514,0-0.932-1.703-0.932-3.805s0.418-3.805,0.932-3.805
	C90.056,339.497,90.472,341.2,90.472,343.302"/>
<path fill="#474747" d="M98.843,353.171l-9.324,5.75c-1.416,0.873-3.203,0.873-4.619,0l-9.324-5.75
	c3.396-0.984,7.381-1.555,11.633-1.555C91.462,351.616,95.431,352.171,98.843,353.171"/>
<path fill="#737373" d="M93.905,353.702l-5.367,3.027c-0.814,0.461-1.844,0.461-2.658,0l-5.367-3.027
	c1.955-0.518,4.248-0.82,6.697-0.82C89.657,352.882,91.942,353.175,93.905,353.702"/>
<path fill="#EBE3CC" d="M74.671,352.616l-45.979-28.379c0,0,6.221-13.172,16.33-26.679c15.109,3.967,27.775,16.38,31.314,32.521
	C78.083,338.062,77.368,345.823,74.671,352.616"/>
<path fill="#EBE3CC" d="M145.741,324.237l-45.994,28.379c-2.682-6.793-3.396-14.555-1.65-22.537
	c3.539-16.141,16.205-28.554,31.313-32.521C139.536,311.065,145.741,324.237,145.741,324.237"/>
<path fill="#474747" d="M70.667,330.005c0,1.939-1.574,3.512-3.514,3.512c-1.941,0-3.514-1.572-3.514-3.512
	c0-1.941,1.572-3.514,3.514-3.514C69.093,326.491,70.667,328.063,70.667,330.005"/>
<path fill="#FFFFFF" d="M67.388,328.833c0,0.689-0.559,1.248-1.25,1.248c-0.689,0-1.248-0.559-1.248-1.248s0.559-1.25,1.248-1.25
	C66.829,327.583,67.388,328.144,67.388,328.833"/>
<path fill="#474747" d="M110.794,330.005c0,1.939-1.572,3.512-3.514,3.512s-3.514-1.572-3.514-3.512
	c0-1.941,1.572-3.514,3.514-3.514S110.794,328.063,110.794,330.005"/>
<path fill="#FFFFFF" d="M107.515,328.833c0,0.689-0.559,1.248-1.25,1.248c-0.689,0-1.248-0.559-1.248-1.248s0.559-1.25,1.248-1.25
	C106.956,327.583,107.515,328.144,107.515,328.833"/>
<g>
	<defs>
		<polyline id="SVGID_3_" points="87.28,359.521 146.878,359.521 146.878,260.599 87.28,260.599 87.28,359.521 		"/>
	</defs>
	<clipPath id="SVGID_10_">
		<use xlink:href="#SVGID_3_"  overflow="visible"/>
	</clipPath>
	<path clip-path="url(#SVGID_10_)" fill="#33565A" d="M146.19,262.074C146.19,262.075,146.19,262.074,146.19,262.074L146.19,262.074
		 M146.181,262.058c0,0.001,0.002,0.002,0.002,0.004C146.183,262.06,146.181,262.059,146.181,262.058 M146.171,262.041
		c0,0.001,0.002,0.003,0.002,0.004C146.173,262.044,146.171,262.042,146.171,262.041 M146.161,262.025c0,0.001,0,0.002,0.002,0.003
		C146.161,262.027,146.161,262.026,146.161,262.025 M146.151,262.009c0,0.001,0,0.002,0.002,0.003
		C146.151,262.011,146.151,262.01,146.151,262.009 M146.142,261.992c0,0.002,0,0.003,0.002,0.004
		C146.142,261.995,146.142,261.994,146.142,261.992 M146.13,261.977c0.002,0.001,0.002,0.002,0.002,0.003
		C146.132,261.979,146.132,261.978,146.13,261.977 M146.12,261.961c0.002,0.001,0.002,0.002,0.002,0.003
		C146.122,261.963,146.122,261.962,146.12,261.961 M146.11,261.945c0,0.001,0.002,0.002,0.002,0.003
		C146.112,261.947,146.11,261.946,146.11,261.945 M146.101,261.93c0,0.001,0,0.003,0.002,0.004
		C146.101,261.932,146.101,261.931,146.101,261.93 M146.091,261.915c0,0.001,0,0.002,0,0.003
		C146.091,261.917,146.091,261.916,146.091,261.915 M146.079,261.9c0.002,0,0.002,0.002,0.002,0.002
		C146.081,261.901,146.081,261.901,146.079,261.9 M146.017,261.814c0.002,0.001,0.002,0.001,0.002,0.002
		C146.019,261.815,146.019,261.814,146.017,261.814 M146.007,261.8c0,0.001,0,0.002,0.002,0.003
		C146.007,261.802,146.007,261.801,146.007,261.8 M145.995,261.785c0,0.002,0.002,0.003,0.004,0.005
		C145.997,261.788,145.995,261.787,145.995,261.785 M145.983,261.771c0.002,0.001,0.002,0.003,0.004,0.004
		C145.985,261.774,145.985,261.772,145.983,261.771 M145.972,261.757c0.002,0.002,0.004,0.004,0.004,0.005
		C145.976,261.761,145.974,261.759,145.972,261.757 M145.962,261.743c0,0.002,0.002,0.003,0.004,0.005
		C145.964,261.747,145.962,261.745,145.962,261.743 M145.948,261.729c0.002,0.002,0.004,0.004,0.006,0.006
		C145.952,261.733,145.95,261.731,145.948,261.729 M145.938,261.716c0,0.002,0.002,0.004,0.004,0.006
		C145.94,261.72,145.938,261.718,145.938,261.716 M145.927,261.702c0,0.002,0.002,0.004,0.004,0.006
		C145.929,261.706,145.927,261.704,145.927,261.702 M145.915,261.689c0,0.002,0.002,0.004,0.004,0.005
		C145.917,261.693,145.915,261.691,145.915,261.689 M145.901,261.676c0.002,0.002,0.004,0.004,0.006,0.006
		C145.905,261.68,145.903,261.678,145.901,261.676 M145.89,261.663c0.002,0.002,0.004,0.004,0.006,0.006
		C145.894,261.667,145.892,261.665,145.89,261.663 M145.878,261.649c0.002,0.002,0.004,0.004,0.006,0.006
		C145.882,261.653,145.88,261.651,145.878,261.649 M145.866,261.637c0.002,0.002,0.004,0.004,0.006,0.006
		C145.87,261.641,145.868,261.639,145.866,261.637 M145.853,261.623c0.002,0.002,0.006,0.005,0.008,0.007
		C145.856,261.628,145.854,261.625,145.853,261.623 M145.835,261.605L145.835,261.605c0.004,0.004,0.008,0.008,0.014,0.013
		C145.845,261.614,145.839,261.609,145.835,261.605L145.835,261.605"/>
	<path clip-path="url(#SVGID_10_)" fill="#27434D" d="M89.519,358.921c-0.008,0.006-0.018,0.011-0.025,0.017
		C89.501,358.932,89.511,358.927,89.519,358.921 M146.454,262.646v0.002C146.454,262.646,146.454,262.646,146.454,262.646
		 M146.446,262.626L146.446,262.626L146.446,262.626 M146.438,262.605c0,0,0,0,0.002,0.001
		C146.438,262.606,146.438,262.605,146.438,262.605 M146.335,262.354C146.335,262.354,146.335,262.354,146.335,262.354
		S146.335,262.354,146.335,262.354 M146.325,262.334c0.002,0.002,0.002,0.003,0.002,0.004
		C146.327,262.337,146.327,262.336,146.325,262.334 M146.317,262.316c0,0.001,0,0.002,0.002,0.003
		C146.317,262.318,146.317,262.317,146.317,262.316 M146.308,262.298c0.002,0.001,0.002,0.002,0.002,0.003
		C146.31,262.3,146.31,262.299,146.308,262.298 M146.3,262.28c0,0,0,0.002,0.002,0.002L146.3,262.28 M146.29,262.262
		c0.002,0.001,0.002,0.002,0.002,0.003C146.292,262.264,146.292,262.263,146.29,262.262 M146.282,262.244
		c0,0.001,0,0.002,0.002,0.002C146.282,262.246,146.282,262.245,146.282,262.244 M146.272,262.227
		c0.002,0.001,0.002,0.001,0.002,0.002C146.274,262.228,146.274,262.228,146.272,262.227 M146.265,262.21
		C146.265,262.21,146.265,262.21,146.265,262.21S146.265,262.21,146.265,262.21"/>
	<path clip-path="url(#SVGID_10_)" fill="#FF6632" d="M141.759,260.599h-0.055c-9.172,0.014-29.537,6.801-37.15,13.184
		c2.924,1.682,5.748,3.709,8.455,5.971c5.713-3.586,16.453-6.972,21.596-6.972c1.24,0,2.154,0.197,2.594,0.636
		c2.432,2.433-2.305,18.632-7.004,25.197c1.127,1.531,2.201,3.054,3.223,4.549c6.414-7.313,13.383-27.77,13.461-37.187v-0.321
		c-0.01-1.224-0.146-2.245-0.424-3.008v-0.002c-0.002-0.007-0.006-0.013-0.008-0.02l0,0c-0.002-0.007-0.004-0.013-0.006-0.02
		c-0.002-0.001-0.002-0.001-0.002-0.001c-0.031-0.087-0.066-0.171-0.104-0.25c0-0.001,0-0.001,0-0.001
		c-0.002-0.006-0.004-0.011-0.008-0.017c0-0.001,0-0.002-0.002-0.004c-0.002-0.005-0.004-0.01-0.006-0.015
		c-0.002-0.001-0.002-0.002-0.002-0.003c-0.002-0.005-0.004-0.01-0.008-0.016c0-0.001,0-0.002-0.002-0.003
		c-0.002-0.005-0.004-0.01-0.006-0.016c-0.002,0-0.002-0.002-0.002-0.002c-0.002-0.006-0.004-0.01-0.008-0.016
		c0-0.001,0-0.002-0.002-0.003c-0.002-0.006-0.004-0.011-0.006-0.016c-0.002,0-0.002-0.001-0.002-0.002
		c-0.002-0.005-0.006-0.011-0.008-0.016c0-0.001,0-0.001-0.002-0.002c-0.002-0.005-0.004-0.011-0.008-0.016c0-0.001,0-0.001,0-0.001
		c-0.023-0.047-0.049-0.092-0.074-0.135c0-0.001,0,0,0-0.001c-0.002-0.004-0.006-0.009-0.008-0.013c0-0.002-0.002-0.003-0.002-0.004
		c-0.002-0.005-0.006-0.009-0.008-0.013c0-0.001-0.002-0.003-0.002-0.004c-0.002-0.004-0.006-0.009-0.008-0.013
		c-0.002-0.001-0.002-0.002-0.002-0.003c-0.002-0.005-0.006-0.01-0.008-0.014c-0.002-0.001-0.002-0.002-0.002-0.003
		c-0.004-0.004-0.006-0.009-0.008-0.013c-0.002-0.001-0.002-0.002-0.002-0.004c-0.004-0.004-0.006-0.008-0.01-0.013
		c0-0.001,0-0.002-0.002-0.003c-0.002-0.004-0.004-0.008-0.008-0.013c0-0.001,0-0.002-0.002-0.003
		c-0.002-0.004-0.006-0.009-0.008-0.013c0-0.001-0.002-0.002-0.002-0.003c-0.002-0.004-0.006-0.008-0.008-0.012
		c-0.002-0.001-0.002-0.003-0.002-0.004c-0.004-0.004-0.006-0.009-0.01-0.012c0-0.001,0-0.002,0-0.003
		c-0.004-0.004-0.006-0.009-0.01-0.013c0,0,0-0.002-0.002-0.002c-0.02-0.028-0.039-0.058-0.061-0.084c0-0.001,0-0.001-0.002-0.002
		c-0.002-0.004-0.006-0.008-0.008-0.012c-0.002-0.001-0.002-0.002-0.002-0.003c-0.004-0.003-0.006-0.007-0.008-0.01
		c-0.002-0.002-0.004-0.003-0.004-0.005c-0.004-0.003-0.006-0.006-0.008-0.01c-0.002-0.001-0.002-0.003-0.004-0.004
		c-0.002-0.003-0.004-0.006-0.008-0.01c0-0.001-0.002-0.003-0.004-0.005c-0.002-0.003-0.004-0.006-0.006-0.009
		c-0.002-0.002-0.004-0.003-0.004-0.005c-0.004-0.002-0.006-0.005-0.008-0.008c-0.002-0.002-0.004-0.004-0.006-0.006
		c-0.002-0.003-0.004-0.006-0.006-0.008s-0.004-0.004-0.004-0.006c-0.002-0.002-0.006-0.005-0.008-0.008
		c-0.002-0.002-0.004-0.004-0.004-0.006c-0.004-0.002-0.006-0.005-0.008-0.008c-0.002-0.001-0.004-0.003-0.004-0.005
		c-0.004-0.003-0.006-0.005-0.008-0.008c-0.002-0.002-0.004-0.004-0.006-0.006c-0.002-0.003-0.004-0.005-0.006-0.007
		s-0.004-0.004-0.006-0.006c-0.002-0.003-0.004-0.005-0.006-0.008c-0.002-0.002-0.004-0.004-0.006-0.006s-0.004-0.004-0.006-0.007
		c-0.002-0.002-0.004-0.004-0.006-0.006s-0.004-0.004-0.006-0.007c-0.002-0.002-0.006-0.005-0.008-0.007s-0.004-0.003-0.004-0.005
		c-0.006-0.005-0.01-0.009-0.014-0.013l0,0C145.144,260.914,143.708,260.602,141.759,260.599"/>
	<path clip-path="url(#SVGID_10_)" fill="#C4451C" d="M134.604,272.781c-5.143,0-15.883,3.386-21.596,6.972
		c3.801,3.176,7.371,6.815,10.656,10.615c2.031,2.364,3.969,4.778,5.744,7.19l0,0c0.264,0.352,0.525,0.704,0.785,1.056
		c4.699-6.565,9.436-22.765,7.004-25.197C136.759,272.979,135.845,272.781,134.604,272.781"/>
	<path clip-path="url(#SVGID_10_)" fill="#FF6632" d="M89.54,347.106c-0.514,0-0.932-1.703-0.932-3.805s0.418-3.805,0.932-3.805
		c0.516,0,0.932,1.703,0.932,3.805S90.056,347.106,89.54,347.106 M91.87,338.056c-0.516,0-0.932-1.703-0.932-3.805
		s0.416-3.805,0.932-3.805c0.514,0,0.932,1.703,0.932,3.805S92.384,338.056,91.87,338.056 M89.54,328.491
		c-0.514,0-0.932-1.703-0.932-3.805s0.418-3.805,0.932-3.805c0.516,0,0.932,1.703,0.932,3.805S90.056,328.491,89.54,328.491
		 M94.198,328.491c-0.514,0-0.932-1.703-0.932-3.805s0.418-3.805,0.932-3.805c0.516,0,0.932,1.703,0.932,3.805
		S94.714,328.491,94.198,328.491 M87.28,268.69v61.767c0.482,0.145,0.863,1.787,0.863,3.794c0,2.006-0.381,3.649-0.863,3.794v13.571
		c4.227,0.006,8.17,0.561,11.563,1.555l0,0l0.904-0.555c-2.682-6.793-3.396-14.555-1.65-22.537
		c3.539-16.141,16.205-28.554,31.313-32.521c-1.775-2.412-3.713-4.826-5.744-7.19c-3.285-3.8-6.855-7.439-10.656-10.615
		c-2.707-2.262-5.531-4.289-8.455-5.971v0.001C99.093,270.641,93.294,268.707,87.28,268.69"/>
	<path clip-path="url(#SVGID_10_)" fill="#FF7A49" d="M89.54,320.882c-0.514,0-0.932,1.703-0.932,3.805s0.418,3.805,0.932,3.805
		c0.516,0,0.932-1.703,0.932-3.805S90.056,320.882,89.54,320.882"/>
	<path clip-path="url(#SVGID_10_)" fill="#FF7A49" d="M94.198,320.882c-0.514,0-0.932,1.703-0.932,3.805s0.418,3.805,0.932,3.805
		c0.516,0,0.932-1.703,0.932-3.805S94.714,320.882,94.198,320.882"/>
	<path clip-path="url(#SVGID_10_)" fill="#FF7A49" d="M87.28,330.457v7.588c0.482-0.145,0.863-1.788,0.863-3.794
		C88.144,332.244,87.763,330.602,87.28,330.457"/>
	<path clip-path="url(#SVGID_10_)" fill="#FF7A49" d="M91.87,330.446c-0.516,0-0.932,1.703-0.932,3.805s0.416,3.805,0.932,3.805
		c0.514,0,0.932-1.703,0.932-3.805S92.384,330.446,91.87,330.446"/>
	<path clip-path="url(#SVGID_10_)" fill="#FF7A49" d="M89.54,339.497c-0.514,0-0.932,1.703-0.932,3.805s0.418,3.805,0.932,3.805
		c0.516,0,0.932-1.703,0.932-3.805S90.056,339.497,89.54,339.497"/>
	<path clip-path="url(#SVGID_10_)" fill="#473B30" d="M87.28,351.616v1.266c2.42,0.006,4.68,0.298,6.625,0.82l-5.367,3.027
		c-0.387,0.219-0.82,0.333-1.258,0.345v2.446c0.768,0,1.531-0.172,2.213-0.583c0.008-0.006,0.018-0.011,0.025-0.017l0,0l9.324-5.75
		C95.45,352.177,91.507,351.622,87.28,351.616"/>
	<path clip-path="url(#SVGID_10_)" fill="#27434D" d="M144.935,322.599c0.531,1.052,0.807,1.639,0.807,1.639l0,0l0,0l-45.994,28.379
		l45.996-28.379C145.743,324.237,145.466,323.65,144.935,322.599"/>
	<path clip-path="url(#SVGID_10_)" fill="#735F4E" d="M87.28,352.882v4.192c0.438-0.012,0.871-0.126,1.258-0.345l5.367-3.027
		C91.96,353.18,89.7,352.888,87.28,352.882"/>
	<path clip-path="url(#SVGID_10_)" fill="#EBBC8A" d="M107.28,333.517c-1.941,0-3.514-1.572-3.514-3.512
		c0-1.941,1.572-3.514,3.514-3.514s3.514,1.572,3.514,3.514C110.794,331.944,109.222,333.517,107.28,333.517 M129.409,297.559
		L129.409,297.559c-15.107,3.967-27.773,16.38-31.313,32.521c-1.746,7.982-1.031,15.744,1.65,22.537l0,0l45.994-28.379
		c0,0-0.275-0.587-0.807-1.639c-1.637-3.238-5.688-10.888-11.52-19.433c0-0.001,0-0.002,0.002-0.003
		c-1.021-1.495-2.096-3.018-3.223-4.549C129.935,298.263,129.673,297.91,129.409,297.559"/>
	<path clip-path="url(#SVGID_10_)" fill="#473B30" d="M106.265,330.081c-0.689,0-1.248-0.559-1.248-1.248s0.559-1.25,1.248-1.25
		c0.691,0,1.25,0.561,1.25,1.25S106.956,330.081,106.265,330.081 M107.28,326.491c-1.941,0-3.514,1.572-3.514,3.514
		c0,1.939,1.572,3.512,3.514,3.512s3.514-1.572,3.514-3.512C110.794,328.063,109.222,326.491,107.28,326.491"/>
	<path clip-path="url(#SVGID_10_)" fill="#FFD3AD" d="M106.265,327.583c-0.689,0-1.248,0.561-1.248,1.25s0.559,1.248,1.248,1.248
		c0.691,0,1.25-0.559,1.25-1.248S106.956,327.583,106.265,327.583"/>
</g>
<g>
	<defs>
		<path id="SVGID_1_" d="M0,87.212c0,48.165,39.046,87.211,87.212,87.211c48.165,0,87.212-39.046,87.212-87.211
			C174.424,39.045,135.377,0,87.212,0C39.046,0,0,39.045,0,87.212"/>
	</defs>
	<clipPath id="SVGID_12_">
		<use xlink:href="#SVGID_1_"  overflow="visible"/>
	</clipPath>
	<g clip-path="url(#SVGID_12_)">
		<defs>
			<polyline id="SVGID_2_" points="27.633,233.854 239.533,233.854 239.533,55.068 27.633,55.068 27.633,233.854 			"/>
		</defs>
		<clipPath id="SVGID_14_">
			<use xlink:href="#SVGID_2_"  overflow="visible"/>
		</clipPath>
		<path clip-path="url(#SVGID_14_)" fill="#43D0D9" d="M174.245,81.573c0.118,1.863,0.179,3.746,0.179,5.639l0,0
			C174.424,85.318,174.363,83.436,174.245,81.573L174.245,81.573"/>
		<path clip-path="url(#SVGID_14_)" fill="#00A4A0" d="M147.741,55.069l-0.146,0.065c0.018,0.029,0.034,0.058,0.051,0.088
			c2.438,4.429-7.066,24.522-13.474,34.418c7.858,10.031,12.567,18.699,12.641,18.834c0,0,0,0,0,0s0.001,0,0.001,0.001l0,0l0,0l0,0
			l0,0l0,0c0,0-0.012,0.012-0.033,0.035c-1.063,1.118-27.315,28.375-59.543,28.375l-0.032-0.001
			c-30.829-0.016-56.18-24.964-59.235-28.089l-0.338,0.151l65.29,65.291c45.502-2.942,81.501-40.781,81.501-87.027
			c0-1.894-0.061-3.776-0.179-5.639L147.741,55.069"/>
	</g>
</g>
</svg>
