<?xml version="1.0" encoding="utf-8"?>
<!-- Generator: Adobe Illustrator 15.0.0, SVG Export Plug-In  -->
<!DOCTYPE svg PUBLIC "-//W3C//DTD SVG 1.1//EN" "http://www.w3.org/Graphics/SVG/1.1/DTD/svg11.dtd" [
	<!ENTITY ns_flows "http://ns.adobe.com/Flows/1.0/">
]>
<svg version="1.1"
	 xmlns="http://www.w3.org/2000/svg" xmlns:xlink="http://www.w3.org/1999/xlink" xmlns:a="http://ns.adobe.com/AdobeSVGViewerExtensions/3.0/"
	 x="0px" y="0px" width="174px" height="174px" viewBox="0 217.225 174 174" enable-background="new 0 217.225 174 174"
	 xml:space="preserve">
<defs>
</defs>
<path fill="#82B329" d="M174.424,304.437c0,48.166-39.046,87.212-87.212,87.212c-48.165,0-87.211-39.046-87.211-87.212
	s39.046-87.213,87.211-87.213C135.378,217.224,174.424,256.271,174.424,304.437"/>
<g>
	<defs>
		<path id="SVGID_4_" d="M0,304.437c0,48.164,39.047,87.212,87.212,87.212c48.166,0,87.212-39.048,87.212-87.212
			c0-48.166-39.046-87.213-87.212-87.213C39.047,217.224,0,256.271,0,304.437"/>
	</defs>
	<clipPath id="SVGID_6_">
		<use xlink:href="#SVGID_4_"  overflow="visible"/>
	</clipPath>
	<g clip-path="url(#SVGID_6_)">
		<defs>
			<polyline id="SVGID_5_" points="44.221,451.354 235.707,451.354 235.707,268.861 44.221,268.861 44.221,451.354 			"/>
		</defs>
		<clipPath id="SVGID_8_">
			<use xlink:href="#SVGID_5_"  overflow="visible"/>
		</clipPath>
		<path clip-path="url(#SVGID_8_)" fill="#59980B" d="M136.655,268.862l-0.042,0.033c2.487,2.592,4.03,6.097,4.077,9.961v0.363
			c-0.016,1.263-0.19,2.486-0.507,3.652c-0.001,0.005-0.003,0.01-0.004,0.015s-0.003,0.011-0.004,0.016
			c-1.49,5.465-6.064,9.658-11.738,10.593c5.79,9.478,9.228,20.086,9.321,29.472c0,0.002,0,0.005,0,0.007c0,0.018,0,0.032,0,0.05
			c0,0.003,0.001,0.007,0.001,0.01c0,0.046,0,0.093,0.001,0.139c0,0.01,0,0.021,0,0.031c0,0.01,0,0.021,0,0.03
			c0,0.013,0,0.024,0,0.037c0,0.009,0,0.018,0,0.026c0,0.02,0,0.04,0,0.059c0,0.002,0,0.003,0,0.004l0,0c0,0.001,0,0.001,0,0.001
			c0,3.569-0.489,6.757-1.413,9.598c-5.356,16.48-25.322,21.293-49.135,21.293c-17.97,0-33.749-2.74-42.712-11.167l-0.279,0.225
			l48.187,48.188c45.036-2.645,80.883-39.461,81.989-84.892L136.655,268.862"/>
	</g>
</g>
<path fill="#474747" d="M63.037,279.038c0,8.092-6.561,14.652-14.652,14.652s-14.651-6.561-14.651-14.652s6.56-14.652,14.651-14.652
	S63.037,270.946,63.037,279.038"/>
<path fill="#5E5E5E" d="M58.642,280.991c0,4.586-3.718,8.303-8.304,8.303c-4.585,0-8.302-3.717-8.302-8.303
	c0-4.585,3.717-8.303,8.302-8.303C54.924,272.688,58.642,276.406,58.642,280.991"/>
<path fill="#474747" d="M111.388,279.038c0,8.092,6.56,14.652,14.651,14.652c8.093,0,14.651-6.561,14.651-14.652
	s-6.559-14.652-14.651-14.652C117.947,264.386,111.388,270.946,111.388,279.038"/>
<path fill="#5E5E5E" d="M115.783,280.991c0,4.586,3.717,8.303,8.303,8.303c4.585,0,8.302-3.717,8.302-8.303
	c0-4.585-3.717-8.303-8.302-8.303C119.5,272.688,115.783,276.406,115.783,280.991"/>
<path fill="#E3DED3" d="M137.761,323.359c0,24.276-22.631,30.892-50.548,30.892c-27.918,0-50.549-6.615-50.549-30.892
	s22.631-57.021,50.549-57.021C115.13,266.339,137.761,299.083,137.761,323.359"/>
<path fill="#F7F1E6" d="M87.212,340.851c-2.132,1.877-5.367,3.075-8.993,3.075c-0.788,0-1.559-0.058-2.304-0.166
	c0.661,3.084,5.463,5.479,11.297,5.479s10.637-2.396,11.298-5.479c-0.745,0.108-1.516,0.166-2.305,0.166
	C92.58,343.926,89.345,342.728,87.212,340.851"/>
<path fill="#474747" d="M65.884,334.993c-0.014,0.182-0.021,0.364-0.021,0.546c0,2.604,1.466,4.911,3.708,6.524
	c2.248,1.619,5.295,2.594,8.647,2.595c3.787-0.003,7.184-1.243,9.478-3.258l-0.483-0.55l-0.484,0.55
	c2.293,2.015,5.69,3.255,9.477,3.258c3.353-0.001,6.4-0.976,8.648-2.595c2.241-1.613,3.708-3.921,3.708-6.524
	c0-0.404-0.328-0.732-0.732-0.732s-0.732,0.328-0.732,0.732c0,2.029-1.136,3.913-3.101,5.336c-1.96,1.416-4.724,2.319-7.791,2.318
	c-3.464,0.003-6.539-1.153-8.508-2.893c-0.277-0.244-0.691-0.244-0.969,0c-1.971,1.739-5.045,2.896-8.51,2.893
	c-3.066,0.001-5.831-0.902-7.79-2.318c-1.965-1.423-3.101-3.307-3.101-5.336c0-0.146,0.005-0.291,0.017-0.432
	c0.031-0.403-0.27-0.756-0.674-0.788C66.269,334.288,65.916,334.589,65.884,334.993"/>
<path fill="#474747" d="M99.44,333.579c0,2.306-7.578,6.162-12.229,6.162c-4.306,0-12.228-3.856-12.228-6.162
	c0-2.307,5.474-4.176,12.228-4.176C93.965,329.403,99.44,331.272,99.44,333.579"/>
<path fill="#474747" d="M116.954,310.955c7.316,7.317,9.499,16.998,4.874,21.623c-4.626,4.625-14.307,2.442-21.623-4.874
	c-7.317-7.316-9.499-16.997-4.874-21.623C99.956,301.456,109.637,303.638,116.954,310.955"/>
<path fill="#474747" d="M57.471,310.955c-7.317,7.317-9.499,16.998-4.874,21.623c4.626,4.625,14.306,2.442,21.623-4.874
	c7.316-7.316,9.499-16.997,4.874-21.623C74.469,301.456,64.787,303.638,57.471,310.955"/>
<path fill="#FFFFFF" d="M74.888,320.981c0,1.791-1.452,3.243-3.243,3.243c-1.792,0-3.244-1.452-3.244-3.243s1.452-3.242,3.244-3.242
	C73.436,317.739,74.888,319.19,74.888,320.981"/>
<path fill="#474747" d="M71.644,322.76c-0.979,0-1.777-0.798-1.777-1.778s0.798-1.777,1.777-1.777c0.981,0,1.779,0.797,1.779,1.777
	S72.625,322.76,71.644,322.76"/>
<path fill="#FFFFFF" d="M106.023,320.981c0,1.791-1.451,3.243-3.242,3.243c-1.793,0-3.244-1.452-3.244-3.243
	s1.451-3.242,3.244-3.242C104.572,317.739,106.023,319.19,106.023,320.981"/>
<path fill="#474747" d="M102.78,322.76c-0.98,0-1.778-0.798-1.778-1.778s0.798-1.777,1.778-1.777s1.779,0.797,1.779,1.777
	S103.761,322.76,102.78,322.76"/>
<g>
	<defs>
		<polyline id="SVGID_3_" points="87.212,354.25 140.69,354.25 140.69,264.386 87.212,264.386 87.212,354.25 		"/>
	</defs>
	<clipPath id="SVGID_10_">
		<use xlink:href="#SVGID_3_"  overflow="visible"/>
	</clipPath>
	<path clip-path="url(#SVGID_10_)" fill="#7AA424" d="M135.443,267.802c0.41,0.344,0.801,0.709,1.17,1.094l0,0
		C136.244,268.511,135.854,268.146,135.443,267.802 M125.45,264.397c-0.001,0-0.001,0-0.002,0
		C125.449,264.397,125.45,264.397,125.45,264.397 M125.491,264.396c-0.002,0-0.002,0-0.004,0
		C125.488,264.396,125.49,264.396,125.491,264.396 M125.649,264.391c-0.005,0-0.009,0-0.014,0.001
		C125.641,264.391,125.645,264.391,125.649,264.391 M125.694,264.39c-0.006,0-0.012,0-0.019,0
		C125.683,264.39,125.688,264.39,125.694,264.39 M125.74,264.389c-0.008,0-0.016,0-0.023,0.001
		C125.725,264.389,125.732,264.389,125.74,264.389 M125.792,264.388c-0.011,0-0.021,0-0.032,0.001
		C125.771,264.388,125.781,264.388,125.792,264.388 M125.845,264.387c-0.011,0-0.022,0.001-0.033,0.001
		C125.823,264.388,125.834,264.387,125.845,264.387 M125.89,264.387c-0.009,0-0.018,0-0.026,0
		C125.872,264.387,125.881,264.387,125.89,264.387 M125.935,264.386c-0.01,0-0.019,0-0.027,0.001
		C125.916,264.386,125.925,264.386,125.935,264.386 M125.98,264.386c-0.01,0-0.02,0-0.029,0
		C125.961,264.386,125.971,264.386,125.98,264.386 M126.039,264.386L126.039,264.386c-0.015,0-0.029,0-0.044,0
		C126.01,264.386,126.024,264.386,126.039,264.386L126.039,264.386L126.039,264.386"/>
	<path clip-path="url(#SVGID_10_)" fill="#548B0A" d="M137.761,323.359c0,3.569-0.489,6.758-1.413,9.599
		C137.271,330.117,137.761,326.93,137.761,323.359L137.761,323.359 M137.761,323.297c0,0.02,0,0.04,0,0.059
		C137.761,323.337,137.761,323.316,137.761,323.297 M137.761,323.233c0,0.013,0,0.025,0,0.037
		C137.761,323.258,137.761,323.246,137.761,323.233 M137.761,323.172c0,0.011,0,0.021,0,0.031
		C137.761,323.192,137.761,323.182,137.761,323.172 M137.759,323.023c0,0.003,0.001,0.007,0.001,0.01
		C137.76,323.03,137.759,323.026,137.759,323.023 M137.759,322.967c0,0.002,0,0.006,0,0.007
		C137.759,322.972,137.759,322.969,137.759,322.967 M140.18,282.887c-0.001,0.006-0.003,0.011-0.004,0.016
		C140.177,282.897,140.179,282.892,140.18,282.887 M136.613,268.896L136.613,268.896c2.525,2.633,4.077,6.207,4.077,10.143
		c0,1.326-0.176,2.611-0.507,3.834c0.316-1.166,0.491-2.39,0.507-3.652v-0.363C140.644,274.992,139.101,271.487,136.613,268.896"/>
	<path clip-path="url(#SVGID_10_)" fill="#43413E" d="M126.039,264.386c-0.015,0-0.029,0-0.044,0c-0.005,0-0.01,0-0.015,0
		c-0.01,0-0.02,0-0.029,0c-0.006,0-0.012,0-0.017,0c-0.01,0-0.019,0-0.027,0.001c-0.006,0-0.012,0-0.018,0c-0.009,0-0.018,0-0.026,0
		c-0.007,0-0.013,0-0.019,0c-0.011,0-0.021,0.001-0.033,0.001c-0.006,0-0.013,0-0.02,0c-0.011,0-0.021,0-0.032,0.001
		c-0.007,0-0.013,0-0.02,0c-0.008,0-0.016,0-0.023,0.001c-0.007,0-0.016,0-0.022,0s-0.012,0-0.019,0
		c-0.009,0.001-0.018,0.001-0.026,0.001c-0.005,0-0.009,0-0.014,0.001c-0.048,0.001-0.097,0.002-0.145,0.004
		c-0.001,0-0.003,0-0.004,0c-0.012,0.001-0.024,0.001-0.037,0.002c0,0-0.001,0-0.002,0c-6.474,0.257-11.854,4.722-13.518,10.731
		c1.449,1.071,2.854,2.222,4.211,3.441c1.036-3.404,4.2-5.882,7.944-5.882c4.585,0,8.302,3.718,8.302,8.303
		c0,4.08-2.941,7.473-6.82,8.171c1.008,1.405,1.962,2.847,2.859,4.315c5.675-0.932,10.256-5.114,11.749-10.575
		c0.001-0.005,0.003-0.01,0.004-0.016c0.001-0.005,0.003-0.01,0.004-0.015c0.331-1.223,0.507-2.508,0.507-3.834
		c0-3.936-1.552-7.51-4.077-10.143c-0.369-0.385-0.76-0.75-1.17-1.094C132.898,265.67,129.618,264.386,126.039,264.386
		L126.039,264.386"/>
	<path clip-path="url(#SVGID_10_)" fill="#585652" d="M124.086,272.688c-3.744,0-6.908,2.478-7.944,5.882
		c3.49,3.138,6.657,6.729,9.426,10.592c3.879-0.698,6.82-4.091,6.82-8.171C132.388,276.406,128.671,272.688,124.086,272.688"/>
	<path clip-path="url(#SVGID_10_)" fill="#D6CCB9" d="M115.317,335.005c-4.694,0-10.395-2.583-15.112-7.301
		c-7.317-7.316-9.499-16.997-4.874-21.623c1.643-1.643,3.924-2.427,6.51-2.427c4.694,0,10.396,2.583,15.113,7.301
		c7.316,7.317,9.499,16.998,4.874,21.623C120.186,334.221,117.903,335.005,115.317,335.005 M87.212,266.34v63.063
		c6.753,0,12.229,1.869,12.229,4.176c0,2.306-7.578,6.162-12.229,6.162v0.377h0.001c0.173,0,0.346,0.061,0.484,0.183
		c1.967,1.737,5.037,2.893,8.496,2.893c0.004,0,0.008,0,0.012,0c0.002,0,0.005,0,0.007,0c3.064,0,5.826-0.903,7.784-2.318
		c1.965-1.423,3.101-3.307,3.101-5.336c0-0.404,0.328-0.732,0.732-0.732s0.732,0.328,0.732,0.732c0,2.604-1.467,4.911-3.708,6.524
		c-1.781,1.282-4.063,2.16-6.602,2.471c-1.231,2.701-5.705,4.705-11.04,4.705v5.011c23.813,0,43.779-4.813,49.136-21.292
		c0.924-2.841,1.413-6.029,1.413-9.599c0-0.001,0-0.002,0-0.004c0-0.019,0-0.039,0-0.059c0-0.009,0-0.018,0-0.026
		c0-0.012,0-0.024,0-0.037c0-0.01,0-0.021,0-0.03c0-0.011,0-0.021,0-0.031c-0.001-0.046-0.001-0.092-0.001-0.139
		c0-0.003-0.001-0.007-0.001-0.01c0-0.017,0-0.033,0-0.05c0-0.001,0-0.005,0-0.007c-0.094-9.393-3.548-20.005-9.346-29.487
		c0.005-0.001,0.009-0.001,0.014-0.002c-0.897-1.469-1.852-2.91-2.859-4.315c-2.769-3.863-5.936-7.454-9.426-10.592
		c-1.356-1.22-2.762-2.37-4.211-3.441c-0.001,0.005-0.003,0.01-0.004,0.015C104.618,269.739,96.192,266.34,87.212,266.34"/>
	<path clip-path="url(#SVGID_10_)" fill="#E8DDC9" d="M87.213,341.801C87.213,341.802,87.212,341.802,87.213,341.801l-0.001,7.438
		c5.335,0,9.809-2.004,11.04-4.705c-0.666,0.081-1.351,0.124-2.047,0.124C92.677,344.656,89.486,343.578,87.213,341.801"/>
	<path clip-path="url(#SVGID_10_)" fill="#43413E" d="M107.829,334.807c-0.404,0-0.732,0.328-0.732,0.732
		c0,2.029-1.136,3.913-3.101,5.336c-1.958,1.415-4.72,2.318-7.784,2.318c-0.002,0-0.005,0-0.007,0c-0.004,0-0.008,0-0.012,0
		c-3.459,0-6.529-1.155-8.496-2.893c-0.139-0.122-0.312-0.183-0.484-0.183h-0.001v1.684c0,0,0.001,0,0.001-0.001
		c2.273,1.777,5.464,2.855,8.992,2.857c0.696,0,1.381-0.043,2.047-0.124c2.538-0.311,4.82-1.188,6.602-2.471
		c2.241-1.613,3.708-3.921,3.708-6.524C108.562,335.135,108.233,334.807,107.829,334.807"/>
	<path clip-path="url(#SVGID_10_)" fill="#43413E" d="M87.212,329.403v10.338c4.65,0,12.229-3.856,12.229-6.162
		C99.44,331.272,93.965,329.403,87.212,329.403"/>
	<path clip-path="url(#SVGID_10_)" fill="#43413E" d="M102.781,324.225c-1.793,0-3.244-1.452-3.244-3.243s1.451-3.242,3.244-3.242
		c1.791,0,3.242,1.451,3.242,3.242S104.572,324.225,102.781,324.225 M101.841,303.654c-2.586,0-4.867,0.784-6.51,2.427
		c-4.625,4.626-2.443,14.307,4.874,21.623c4.718,4.718,10.418,7.301,15.112,7.301c2.586,0,4.868-0.784,6.511-2.427
		c4.625-4.625,2.442-14.306-4.874-21.623C112.236,306.237,106.535,303.654,101.841,303.654"/>
	<path clip-path="url(#SVGID_10_)" fill="#F0EADF" d="M102.78,322.76c-0.98,0-1.778-0.798-1.778-1.778s0.798-1.777,1.778-1.777
		s1.779,0.797,1.779,1.777S103.761,322.76,102.78,322.76 M102.781,317.739c-1.793,0-3.244,1.451-3.244,3.242
		s1.451,3.243,3.244,3.243c1.791,0,3.242-1.452,3.242-3.243S104.572,317.739,102.781,317.739"/>
	<path clip-path="url(#SVGID_10_)" fill="#43413E" d="M102.78,319.204c-0.98,0-1.778,0.797-1.778,1.777s0.798,1.778,1.778,1.778
		s1.779-0.798,1.779-1.778S103.761,319.204,102.78,319.204"/>
</g>
<g>
	<defs>
		<path id="SVGID_1_" d="M0.001,87.212c0,48.164,39.045,87.212,87.211,87.212s87.211-39.048,87.211-87.212
			C174.423,39.046,135.378,0,87.212,0S0.001,39.046,0.001,87.212"/>
	</defs>
	<clipPath id="SVGID_12_">
		<use xlink:href="#SVGID_1_"  overflow="visible"/>
	</clipPath>
	<g clip-path="url(#SVGID_12_)">
		<defs>
			<polyline id="SVGID_2_" points="32.153,233.957 244.671,233.957 244.671,41.985 32.153,41.985 32.153,233.957 			"/>
		</defs>
		<clipPath id="SVGID_14_">
			<use xlink:href="#SVGID_2_"  overflow="visible"/>
		</clipPath>
		<path clip-path="url(#SVGID_14_)" fill="#3B9CED" d="M144.007,41.985L144.007,41.985l-0.004,0.003
			c0.051,0.057,0.1,0.116,0.145,0.178l0,0c0.004,0.004,0.008,0.009,0.01,0.014c0.002,0.001,0.002,0.002,0.002,0.002
			c0.004,0.004,0.006,0.008,0.01,0.012c0,0.001,0,0.001,0,0.001c0.004,0.005,0.006,0.009,0.01,0.014c0,0,0,0,0,0.001
			c0.475,0.676,0.693,1.898,0.699,3.521v0.145c-0.008,1.949-0.311,4.449-0.84,7.262c0,0.001,0,0.002,0,0.003
			c-0.002,0.01-0.006,0.023-0.008,0.033c-0.002,0.011-0.004,0.021-0.006,0.031c0,0.004,0,0.005-0.002,0.01
			c-2.182,11.538-8.137,28.232-13.027,33.309c6.266,13.138,11.357,25.479,11.357,26.232c-0.107,0-0.221,0-0.332,0.002
			c-0.102,0.002-0.203,0.005-0.301,0.012l0,0l0,0c-0.023,0-0.047,0.001-0.07,0.001c-0.006,0-0.01,0-0.016,0
			c-0.018,0.001-0.035,0.001-0.053,0.001c-0.008,0-0.014,0.001-0.021,0.001c-0.016,0-0.033,0-0.049,0.001c-0.006,0-0.014,0-0.02,0
			c-0.018,0.001-0.035,0.001-0.053,0.001c-0.004,0-0.012,0.001-0.016,0.001c-0.02,0-0.039,0.001-0.059,0.001
			c-0.002,0-0.008,0-0.01,0c-6.107,0.143-11.398,1.445-16.141,3.36c-0.002,0.001-0.002,0.001-0.004,0.002
			c-0.004,0.002-0.01,0.004-0.014,0.006c-8.602,3.478-15.396,8.969-21.99,13.197c0,0.001-0.002,0.001-0.002,0.002
			c-0.002,0-0.002,0-0.002,0.001c-2.547,1.633-5.064,3.078-7.645,4.146v0.42l0,0c0,4.55-3.688,8.238-8.236,8.238
			s-8.236-3.688-8.236-8.238v-0.375c-13.619-5.34-28.029-20.353-46.301-20.766c-0.203-0.014-0.42-0.014-0.625-0.014l61.439,61.438
			c45.182-3.271,80.824-40.967,80.824-86.981c0-5.586-0.525-11.045-1.529-16.338L144.007,41.985"/>
	</g>
</g>
</svg>
