<?xml version="1.0" encoding="utf-8"?>
<!-- Generator: Adobe Illustrator 15.0.0, SVG Export Plug-In  -->
<!DOCTYPE svg PUBLIC "-//W3C//DTD SVG 1.1//EN" "http://www.w3.org/Graphics/SVG/1.1/DTD/svg11.dtd" [
	<!ENTITY ns_flows "http://ns.adobe.com/Flows/1.0/">
]>
<svg version="1.1"
	 xmlns="http://www.w3.org/2000/svg" xmlns:xlink="http://www.w3.org/1999/xlink" xmlns:a="http://ns.adobe.com/AdobeSVGViewerExtensions/3.0/"
	 x="0px" y="0px" width="174px" height="174px" viewBox="0 0 174 174" enable-background="new 0 0 174 174" xml:space="preserve">
<defs>
</defs>
<path fill="#E66C90" d="M174.424,87.212c0,48.166-39.047,87.212-87.213,87.212C39.047,174.424,0,135.378,0,87.212S39.047,0,87.211,0
	C135.377,0,174.424,39.046,174.424,87.212"/>
<g>
	<defs>
		<path id="SVGID_2_" d="M0,87.212c0,48.165,39.046,87.212,87.212,87.212c48.165,0,87.212-39.047,87.212-87.212
			C174.424,39.046,135.377,0,87.212,0C39.046,0,0,39.046,0,87.212"/>
	</defs>
	<clipPath id="SVGID_4_">
		<use xlink:href="#SVGID_2_"  overflow="visible"/>
	</clipPath>
	<g clip-path="url(#SVGID_4_)">
		<defs>
			<polyline id="SVGID_3_" points="47.617,229.655 242.288,229.655 242.288,42.062 47.617,42.062 47.617,229.655 			"/>
		</defs>
		<clipPath id="SVGID_5_">
			<use xlink:href="#SVGID_3_"  overflow="visible"/>
		</clipPath>
		<path clip-path="url(#SVGID_5_)" fill="#EDB4C5" d="M132.062,162.023c-9.494,5.704-20.164,9.652-31.561,11.395l0,0
			C111.896,171.675,122.567,167.727,132.062,162.023 M132.306,161.875c-0.032,0.02-0.063,0.039-0.097,0.059
			C132.242,161.914,132.273,161.896,132.306,161.875 M132.34,161.855c-0.007,0.004-0.012,0.007-0.019,0.011
			C132.328,161.862,132.333,161.859,132.34,161.855"/>
		<path clip-path="url(#SVGID_5_)" fill="#D64C6F" d="M140.757,42.575c0.307,0.661,0.453,1.618,0.462,2.798v0.017
			c0,0.065,0,0.131,0,0.198v0.017c-0.005,0.685-0.054,1.439-0.142,2.25v0.001c-0.002,0.012-0.003,0.022-0.004,0.034
			c-0.001,0.004-0.001,0.008-0.002,0.012c0,0.006-0.001,0.013-0.002,0.02c-1.002,9.029-6.853,24.985-11.965,29.711
			c4.426,8.43,7.293,17.378,7.361,25.341c0,0.002,0,0.004,0,0.006c0,0.03,0,0.058,0,0.087c0,0.003,0,0.007,0,0.01
			c0,0.028,0.001,0.057,0.001,0.085c0,0.003,0,0.006,0,0.009c0,0.029,0,0.059,0,0.088l0,0l0,0l0,0
			c0,14.535-35.104,37.709-49.365,37.709c-8.201,0-27.3-9.021-39.192-20.144l52.592,52.592c11.396-1.742,22.066-5.69,31.561-11.395
			c0.049-0.03,0.098-0.059,0.147-0.089c0.033-0.02,0.064-0.039,0.097-0.059c0.005-0.003,0.011-0.007,0.016-0.009
			c0.007-0.004,0.012-0.007,0.019-0.011c25.224-15.285,42.084-42.997,42.084-74.643c0-3.986-0.268-7.911-0.786-11.755
			L140.757,42.575"/>
	</g>
</g>
<path fill="#E4D3A8" d="M45.59,77.874c-6.81-5.789-15.121-32.301-11.512-35.91c3.521-3.521,30.12,4.703,35.909,11.513
	C61.855,61.608,53.723,69.741,45.59,77.874"/>
<path fill="#7D4F31" d="M48.584,74.54c-5.044-4.287-11.199-23.922-8.525-26.596c2.607-2.609,22.308,3.482,26.595,8.526
	C60.631,62.493,54.607,68.517,48.584,74.54"/>
<path fill="#E4D3A8" d="M128.833,77.874c6.81-5.789,15.122-32.301,11.513-35.91c-3.521-3.521-30.121,4.703-35.91,11.513
	C112.568,61.608,120.701,69.741,128.833,77.874"/>
<path fill="#7D4F31" d="M125.839,74.54c5.044-4.287,11.2-23.922,8.526-26.596c-2.608-2.609-22.309,3.482-26.596,8.526
	C113.793,62.493,119.816,68.517,125.839,74.54"/>
<path fill="#E4D3A8" d="M107.944,51.616v0.152H65.82c-14.264,10.975-28.084,33.75-28.084,51.491
	c0,17.278,37.023,37.709,49.365,37.709c14.261,0,49.365-23.174,49.365-37.709C136.467,85.438,122.285,62.567,107.944,51.616"/>
<path fill="#9E643E" d="M103.826,119.561c0,7.052-7.438,12.771-16.61,12.771c-9.174,0-16.61-5.719-16.61-12.771
	s7.437-12.771,16.61-12.771C96.389,106.79,103.826,112.509,103.826,119.561"/>
<path fill="#7D4F31" d="M122.444,99.085c3.845,16.396-10.839,31.484-35.351,23.338c-21.943,8.366-38.397-6.775-35.352-23.338
	c3.279-17.833,14.949-37.648,35.352-37.648C106.982,61.437,118.21,81.031,122.444,99.085"/>
<path fill="#F5A4AC" d="M93.277,116.866l-4.876,4.107c-0.756,0.637-1.86,0.637-2.616,0l-4.876-4.107
	c-1.364-1.149-0.551-3.377,1.233-3.377h9.902C93.828,113.489,94.641,115.717,93.277,116.866"/>
<path fill="#FFBDC2" d="M92.045,113.49h-9.903c-0.33,0-0.612,0.095-0.869,0.228c-0.176,0.301-0.298,0.615-0.298,0.947
	c0,1.785,2.738,3.232,6.119,3.232c3.379,0,6.119-1.447,6.119-3.232c0-0.332-0.122-0.646-0.299-0.947
	C92.658,113.585,92.375,113.49,92.045,113.49"/>
<path fill="#3FC4D9" d="M76.72,97.714c0,0-4.806,2.992-8.932,1.559c-4.144-1.439-6.847-4.447-6.043-6.76
	c0.596-1.714,2.95-2.536,5.815-2.25c0.996,0.085,2.051,0.32,3.116,0.691c0.933,0.324,1.755,0.852,2.472,1.474
	C75.568,94.536,76.72,97.714,76.72,97.714"/>
<path fill="#474747" d="M72.87,94.68c-0.798,2.296-2.927,3.646-4.772,3.004c-1.83-0.636-2.681-3.019-1.883-5.315
	c0.294-0.849,0.766-1.562,1.346-2.105c0.996,0.085,2.053,0.32,3.116,0.691c0.933,0.324,1.755,0.852,2.472,1.474
	C73.218,93.141,73.136,93.915,72.87,94.68"/>
<path fill="#FFFFFF" d="M68.178,93.524c0,0.908-0.736,1.645-1.645,1.645c-0.909,0-1.646-0.736-1.646-1.645
	c0-0.91,0.737-1.646,1.646-1.646C67.441,91.878,68.178,92.614,68.178,93.524"/>
<path fill="#3FC4D9" d="M97.711,97.714c0,0,4.807,2.992,8.933,1.559c4.144-1.439,6.846-4.447,6.043-6.76
	c-0.597-1.714-2.951-2.536-5.815-2.25c-0.996,0.085-2.052,0.32-3.117,0.691c-0.932,0.324-1.754,0.852-2.472,1.474
	C98.863,94.536,97.711,97.714,97.711,97.714"/>
<path fill="#474747" d="M101.562,94.68c0.797,2.296,2.926,3.646,4.772,3.004c1.83-0.636,2.681-3.019,1.883-5.315
	c-0.295-0.849-0.766-1.562-1.346-2.105c-0.996,0.085-2.053,0.32-3.117,0.691c-0.932,0.324-1.754,0.852-2.471,1.474
	C101.213,93.141,101.295,93.915,101.562,94.68"/>
<path fill="#FFFFFF" d="M103.83,94.552c0,0.91-0.736,1.646-1.645,1.646s-1.646-0.735-1.646-1.646c0-0.908,0.738-1.646,1.646-1.646
	S103.83,93.644,103.83,94.552"/>
<g>
	<defs>
		<polyline id="SVGID_1_" points="87.102,140.969 141.219,140.969 141.219,41.121 87.102,41.121 87.102,140.969 		"/>
	</defs>
	<clipPath id="SVGID_6_">
		<use xlink:href="#SVGID_1_"  overflow="visible"/>
	</clipPath>
	<path clip-path="url(#SVGID_6_)" fill="#D65E73" d="M140.544,42.202c0.078,0.111,0.148,0.236,0.213,0.373l0,0
		C140.692,42.438,140.622,42.313,140.544,42.202 M140.534,42.188c0.004,0.004,0.006,0.008,0.01,0.013
		C140.54,42.197,140.537,42.192,140.534,42.188 M140.526,42.176c0.002,0.004,0.005,0.008,0.008,0.012
		C140.531,42.184,140.528,42.18,140.526,42.176 M140.517,42.163c0.002,0.004,0.006,0.008,0.008,0.012
		C140.522,42.171,140.519,42.167,140.517,42.163 M140.507,42.151c0.003,0.003,0.006,0.007,0.009,0.011
		C140.513,42.159,140.51,42.155,140.507,42.151 M140.497,42.138c0.004,0.004,0.006,0.007,0.009,0.011
		C140.503,42.146,140.501,42.142,140.497,42.138 M140.488,42.126c0.003,0.003,0.006,0.007,0.009,0.01
		C140.494,42.133,140.491,42.13,140.488,42.126 M140.479,42.114c0.003,0.003,0.006,0.007,0.009,0.011
		C140.484,42.121,140.481,42.117,140.479,42.114 M140.47,42.102c0.002,0.003,0.005,0.007,0.008,0.01
		C140.475,42.109,140.472,42.105,140.47,42.102 M140.459,42.09c0.003,0.003,0.006,0.007,0.009,0.01
		C140.465,42.096,140.462,42.093,140.459,42.09 M140.45,42.078c0.002,0.003,0.005,0.006,0.008,0.01
		C140.455,42.084,140.452,42.082,140.45,42.078 M140.44,42.067c0.003,0.003,0.005,0.005,0.008,0.008
		C140.445,42.073,140.443,42.07,140.44,42.067 M140.432,42.056c0.002,0.002,0.004,0.005,0.006,0.008
		C140.436,42.062,140.434,42.059,140.432,42.056 M140.422,42.045c0.002,0.002,0.004,0.004,0.006,0.007
		C140.426,42.05,140.424,42.048,140.422,42.045 M140.412,42.035c0.002,0.002,0.004,0.004,0.006,0.006
		C140.416,42.039,140.414,42.037,140.412,42.035 M140.402,42.023c0.002,0.002,0.004,0.004,0.005,0.006
		C140.405,42.027,140.404,42.025,140.402,42.023 M140.393,42.013c0.001,0.001,0.003,0.004,0.005,0.005
		C140.396,42.017,140.394,42.014,140.393,42.013 M140.381,42c0.002,0.002,0.004,0.004,0.007,0.007
		C140.385,42.005,140.383,42.002,140.381,42 M140.37,41.989c0.003,0.002,0.005,0.005,0.007,0.007
		C140.375,41.994,140.372,41.991,140.37,41.989 M140.361,41.98c0.002,0.002,0.004,0.003,0.005,0.005
		C140.365,41.983,140.363,41.981,140.361,41.98 M134.268,41.295c-0.002,0-0.004,0-0.005,0
		C134.264,41.295,134.266,41.295,134.268,41.295 M134.325,41.288c-0.004,0-0.007,0.001-0.012,0.001
		C134.317,41.289,134.321,41.289,134.325,41.288 M134.386,41.281c-0.007,0-0.014,0.001-0.021,0.002
		C134.372,41.283,134.379,41.282,134.386,41.281 M134.446,41.274c-0.014,0.001-0.025,0.003-0.039,0.004
		C134.42,41.277,134.434,41.276,134.446,41.274 M136.856,41.121h-0.021c-0.718,0.003-1.517,0.056-2.38,0.152
		C135.327,41.176,136.134,41.124,136.856,41.121 M136.984,41.121h-0.025c1.503,0.005,2.64,0.231,3.255,0.725
		C139.602,41.355,138.476,41.128,136.984,41.121"/>
	<path clip-path="url(#SVGID_6_)" fill="#C74259" d="M136.467,103.163c0,0.003,0,0.006,0,0.009
		C136.467,103.169,136.467,103.166,136.467,103.163 M136.466,103.067c0,0.003,0,0.007,0,0.01
		C136.466,103.074,136.466,103.07,136.466,103.067 M136.466,102.974c0,0.002,0,0.004,0,0.006
		C136.466,102.978,136.466,102.976,136.466,102.974 M141.071,47.901c0,0.007-0.001,0.013-0.002,0.02
		C141.07,47.915,141.071,47.908,141.071,47.901 M141.077,47.856c-0.002,0.012-0.003,0.022-0.004,0.034
		C141.074,47.878,141.075,47.868,141.077,47.856 M141.219,45.587c-0.004,0.689-0.053,1.449-0.142,2.267
		c0.088-0.812,0.137-1.565,0.142-2.25V45.587 M140.757,42.575c0.308,0.664,0.454,1.627,0.462,2.815v-0.017
		C141.21,44.192,141.063,43.235,140.757,42.575L140.757,42.575"/>
	<path clip-path="url(#SVGID_6_)" fill="#D4B986" d="M136.959,41.121h-0.103c-0.723,0.002-1.529,0.055-2.4,0.152
		c-0.003,0-0.007,0-0.01,0.001c-0.013,0.001-0.026,0.003-0.039,0.004c-0.007,0-0.014,0.001-0.021,0.002
		c-0.007,0.001-0.014,0.001-0.021,0.002c-0.013,0.001-0.027,0.003-0.04,0.004c-0.004,0-0.008,0.001-0.012,0.001
		c-0.016,0.001-0.03,0.003-0.046,0.005c-0.002,0-0.004,0-0.005,0c-8.197,0.967-21.979,5.794-27.982,10.473h-0.01l0,0h1.674v-0.152
		c0.977,0.746,1.953,1.547,2.924,2.398c5.658-3.463,15.976-6.695,20.951-6.695c1.217,0,2.115,0.194,2.546,0.625
		c2.504,2.504-2.734,19.879-7.553,25.599c0.8,1.342,1.564,2.705,2.287,4.081c5.114-4.72,10.968-20.675,11.97-29.703
		c0.001-0.007,0.002-0.013,0.002-0.02c0.001-0.004,0.001-0.008,0.002-0.012c0.001-0.012,0.002-0.022,0.004-0.034v-0.001
		c0.089-0.818,0.138-1.578,0.142-2.267V45.39c-0.008-1.188-0.154-2.151-0.462-2.815c-0.064-0.137-0.135-0.262-0.213-0.373v0
		c-0.004-0.004-0.006-0.009-0.01-0.013v0c-0.003-0.004-0.006-0.008-0.008-0.012c-0.001,0-0.001-0.001-0.002-0.001
		c-0.002-0.004-0.006-0.008-0.008-0.012c-0.001,0-0.001,0-0.001-0.001c-0.003-0.003-0.006-0.007-0.009-0.011
		c0-0.001,0-0.001-0.001-0.002c-0.003-0.004-0.005-0.007-0.009-0.011c0,0,0-0.001,0-0.001c-0.003-0.003-0.006-0.007-0.009-0.01
		c-0.001-0.001-0.001-0.001-0.001-0.002c-0.003-0.004-0.006-0.007-0.009-0.011c0,0-0.001-0.001-0.001-0.001
		c-0.003-0.003-0.006-0.007-0.008-0.01c-0.001,0-0.002-0.001-0.002-0.002c-0.003-0.003-0.006-0.006-0.009-0.01
		c0,0-0.001-0.001-0.001-0.002c-0.003-0.003-0.006-0.006-0.008-0.01c-0.001,0-0.002-0.001-0.002-0.002
		c-0.003-0.003-0.005-0.005-0.008-0.008c-0.001-0.001-0.002-0.002-0.003-0.003c-0.002-0.002-0.004-0.005-0.006-0.008
		c-0.001-0.001-0.003-0.002-0.004-0.004c-0.002-0.002-0.004-0.004-0.006-0.007c-0.001-0.001-0.003-0.003-0.004-0.005
		c-0.002-0.002-0.004-0.004-0.006-0.006c-0.001-0.001-0.003-0.004-0.005-0.005c-0.001-0.002-0.003-0.004-0.005-0.006
		s-0.003-0.003-0.005-0.005c-0.002-0.001-0.004-0.004-0.005-0.005c-0.002-0.002-0.003-0.004-0.005-0.006
		c-0.003-0.002-0.005-0.004-0.007-0.007c-0.002-0.001-0.003-0.002-0.004-0.004c-0.002-0.002-0.004-0.005-0.007-0.007
		c-0.001-0.001-0.002-0.002-0.004-0.003c-0.001-0.002-0.003-0.003-0.005-0.005c-0.005-0.005-0.011-0.011-0.016-0.016l0,0l0,0
		c-0.041-0.041-0.085-0.08-0.132-0.118C139.599,41.352,138.462,41.126,136.959,41.121"/>
	<path clip-path="url(#SVGID_6_)" fill="#744527" d="M131.819,47.319c-4.976,0-15.293,3.232-20.951,6.695
		c5.818,5.101,11.451,11.995,15.944,19.529c4.818-5.72,10.057-23.095,7.553-25.599C133.935,47.513,133.036,47.319,131.819,47.319"/>
	<path clip-path="url(#SVGID_6_)" fill="#D4B986" d="M107.944,51.616v0.152h-1.674H87.102v9.668
		c19.884,0.005,31.109,19.597,35.343,37.648c2.951,12.588-5.018,24.404-19.97,25.529c-2.547,4.539-8.421,7.717-15.259,7.717
		c-0.038,0-0.076,0-0.114,0v8.638c14.261,0,49.365-23.174,49.365-37.709l0,0c0-0.029,0-0.059,0-0.088c0-0.003,0-0.006,0-0.009
		c0-0.028-0.001-0.057-0.001-0.085c0-0.003,0-0.007,0-0.01c0-0.029,0-0.058,0-0.087c0-0.002,0-0.004,0-0.006
		c-0.068-7.965-2.95-16.907-7.378-25.339c0.004-0.004,0.008-0.007,0.012-0.011c-0.723-1.376-1.487-2.739-2.287-4.081
		c-4.493-7.534-10.126-14.428-15.944-19.529C109.897,53.164,108.921,52.362,107.944,51.616"/>
	<path clip-path="url(#SVGID_6_)" fill="#935732" d="M87.102,122.425v9.906c0.038,0,0.076,0,0.114,0
		c6.838,0,12.712-3.178,15.259-7.717c-0.768,0.058-1.554,0.087-2.357,0.087C96.186,124.701,91.825,123.995,87.102,122.425"/>
	<path clip-path="url(#SVGID_6_)" fill="#744527" d="M106.871,90.263c0.374-0.038,0.74-0.056,1.094-0.056
		c2.355,0,4.203,0.816,4.722,2.306c0.803,2.313-1.899,5.32-6.043,6.76c-0.798,0.277-1.62,0.389-2.429,0.389
		c-3.376,0-6.504-1.947-6.504-1.947s1.152-3.178,3.571-5.286c0.64-0.554,1.361-1.033,2.17-1.36c0.1-0.04,0.2-0.078,0.302-0.113
		C104.818,90.583,105.875,90.348,106.871,90.263L106.871,90.263 M87.102,61.437v52.053h4.943c1.783,0,2.596,2.228,1.232,3.377
		l-4.876,4.107c-0.376,0.316-0.838,0.476-1.3,0.478v0.974c4.724,1.569,9.084,2.275,13.016,2.275c0.804,0,1.59-0.029,2.357-0.087
		c14.952-1.125,22.921-12.941,19.97-25.529C118.211,81.034,106.985,61.441,87.102,61.437"/>
	<path clip-path="url(#SVGID_6_)" fill="#E48F8A" d="M92.045,113.489h-4.943v0.001L92.045,113.489
		c0.33,0.001,0.613,0.096,0.869,0.229c0.177,0.301,0.299,0.615,0.299,0.947c0,1.784-2.736,3.23-6.111,3.232v3.554
		c0.462-0.002,0.924-0.161,1.3-0.478l4.876-4.107C94.641,115.717,93.828,113.489,92.045,113.489"/>
	<path clip-path="url(#SVGID_6_)" fill="#EDA59B" d="M92.045,113.49h-4.943v4.407c3.375-0.002,6.111-1.449,6.111-3.232
		c0-0.332-0.122-0.646-0.299-0.947C92.658,113.585,92.375,113.49,92.045,113.49"/>
	<path clip-path="url(#SVGID_6_)" fill="#3BABAE" d="M107.965,90.207c-0.354,0-0.72,0.018-1.094,0.056
		c0.58,0.544,1.051,1.257,1.346,2.105c0.798,2.297-0.053,4.68-1.883,5.315c-0.312,0.108-0.631,0.16-0.95,0.16
		c-1.109,0-2.223-0.622-3.016-1.656c-0.061,0.006-0.121,0.01-0.183,0.01c-0.908,0-1.646-0.735-1.646-1.646
		c0-0.568,0.289-1.069,0.728-1.365c-0.014-0.258-0.008-0.513,0.017-0.759c0.639-0.554,1.36-1.033,2.169-1.36
		c-0.809,0.328-1.53,0.807-2.17,1.36c-2.419,2.108-3.571,5.286-3.571,5.286s3.128,1.947,6.504,1.947
		c0.809,0,1.631-0.112,2.429-0.389c4.144-1.439,6.846-4.447,6.043-6.76C112.168,91.023,110.32,90.207,107.965,90.207"/>
	<path clip-path="url(#SVGID_6_)" fill="#423E39" d="M106.871,90.263c-0.996,0.085-2.053,0.32-3.117,0.691
		c-0.102,0.035-0.202,0.073-0.302,0.113c-0.809,0.328-1.53,0.807-2.169,1.36c-0.024,0.247-0.03,0.501-0.017,0.759
		c0.263-0.177,0.578-0.281,0.919-0.281c0.908,0,1.645,0.737,1.645,1.646c0,0.848-0.64,1.545-1.462,1.636
		c0.793,1.034,1.906,1.656,3.016,1.656c0.319,0,0.639-0.051,0.95-0.16c1.83-0.636,2.681-3.019,1.883-5.315
		C107.922,91.52,107.451,90.807,106.871,90.263L106.871,90.263"/>
	<path clip-path="url(#SVGID_6_)" fill="#EDDFCC" d="M102.186,92.906c-0.341,0-0.656,0.104-0.919,0.281
		c-0.438,0.296-0.728,0.797-0.728,1.365c0,0.91,0.738,1.646,1.646,1.646c0.062,0,0.122-0.003,0.183-0.01
		c0.822-0.091,1.462-0.788,1.462-1.636C103.83,93.644,103.094,92.906,102.186,92.906"/>
</g>
<path fill="#9E643E" d="M71.373,88.681c-0.411,0.811-2.523,0.566-4.719-0.545c-2.196-1.111-3.644-2.67-3.233-3.48
	c0.411-0.812,2.524-0.567,4.719,0.545C70.336,86.312,71.783,87.87,71.373,88.681"/>
<path fill="#9E643E" d="M103.051,88.681c0.41,0.811,2.522,0.566,4.719-0.545c2.195-1.111,3.643-2.67,3.232-3.48
	c-0.41-0.812-2.523-0.567-4.719,0.545C104.088,86.312,102.639,87.87,103.051,88.681"/>
</svg>
